<?xml version="1.0" encoding="UTF-8"?>
<svg xmlns="http://www.w3.org/2000/svg" version="1.1" viewBox="0 0 52 52">
  <defs>
    <style>
      .cls-1 {
        fill: #ff24c1;
      }

      .cls-2 {
        display: none;
      }
    </style>
  </defs>
  <!-- Generator: Adobe Illustrator 28.7.1, SVG Export Plug-In . SVG Version: 1.2.0 Build 142)  -->
  <g>
    <g id="Capa_1" class="cls-2">
      <path class="cls-1" d="M35.7,51h-19.4c-8.4,0-15.3-6.9-15.3-15.3v-19.4C1,7.9,7.9,1,16.3,1h19.4c8.4,0,15.3,6.9,15.3,15.3v19.4c0,8.4-6.9,15.3-15.3,15.3M16.3,4.7c-6.4,0-11.6,5.2-11.6,11.6v19.4c0,6.4,5.2,11.6,11.6,11.6h19.4c6.4,0,11.6-5.2,11.6-11.6v-19.4c0-6.4-5.2-11.6-11.6-11.6h-19.4Z"/>
      <path class="cls-1" d="M26,38.6c-7,0-12.6-5.7-12.6-12.6s5.7-12.6,12.6-12.6,12.6,5.7,12.6,12.6-5.7,12.6-12.6,12.6M26,17.2c-4.9,0-8.8,4-8.8,8.8s4,8.8,8.8,8.8,8.8-4,8.8-8.8-4-8.8-8.8-8.8"/>
      <path class="cls-1" d="M43.3,12c0,1.8-1.5,3.3-3.3,3.3s-3.3-1.5-3.3-3.3,1.5-3.3,3.3-3.3,3.3,1.5,3.3,3.3"/>
    </g>
    <g id="Capa_2">
      <path class="cls-1" d="M26,1C12.2,1,1,12.2,1,26s11.2,25,25,25,25-11.2,25-25S39.8,1,26,1M33,16.2h-3.3c-1.2,0-1.4.5-1.4,1.7v2.9h4.7l-.4,5.1h-4.2v15.2h-6.1v-15.2h-3.2v-5.2h3.2v-4.1c0-3.8,2-5.8,6.6-5.8h4.2v5.3Z"/>
    </g>
  </g>
</svg>