<?xml version="1.0" encoding="UTF-8"?>
<svg xmlns="http://www.w3.org/2000/svg" version="1.1" viewBox="0 0 52 52">
  <defs>
    <style>
      .cls-1 {
        fill: #fff;
      }

      .cls-2 {
        fill: #ff24c1;
      }
    </style>
  </defs>
  <!-- Generator: Adobe Illustrator 28.7.1, SVG Export Plug-In . SVG Version: 1.2.0 Build 142)  -->
  <g>
    <g id="Capa_1">
      <g id="Capa_1-2" data-name="Capa_1">
        <rect class="cls-2" x="2.5" y="2.5" width="47" height="47" rx="15" ry="15"/>
        <path class="cls-1" d="M35.7,51h-19.4c-8.4,0-15.3-6.9-15.3-15.3v-19.4c0-8.4,6.9-15.3,15.3-15.3h19.4c8.4,0,15.3,6.9,15.3,15.3v19.4c0,8.4-6.9,15.3-15.3,15.3M16.3,4.7c-6.4,0-11.6,5.2-11.6,11.6v19.4c0,6.4,5.2,11.6,11.6,11.6h19.4c6.4,0,11.6-5.2,11.6-11.6v-19.4c0-6.4-5.2-11.6-11.6-11.6,0,0-19.4,0-19.4,0Z"/>
        <path class="cls-1" d="M26,38.6c-7,0-12.6-5.7-12.6-12.6s5.7-12.6,12.6-12.6,12.6,5.7,12.6,12.6-5.7,12.6-12.6,12.6M26,17.2c-4.9,0-8.8,4-8.8,8.8s4,8.8,8.8,8.8,8.8-4,8.8-8.8-4-8.8-8.8-8.8"/>
        <path class="cls-1" d="M43.3,12c0,1.8-1.5,3.3-3.3,3.3s-3.3-1.5-3.3-3.3,1.5-3.3,3.3-3.3,3.3,1.5,3.3,3.3"/>
      </g>
    </g>
  </g>
</svg>