<?xml version="1.0" encoding="UTF-8"?>
<svg xmlns="http://www.w3.org/2000/svg" version="1.1" viewBox="0 0 285 130">
  <defs>
    <style>
      .cls-1 {
        fill: #fff;
      }
    </style>
  </defs>
  <!-- Generator: Adobe Illustrator 28.7.1, SVG Export Plug-In . SVG Version: 1.2.0 Build 142)  -->
  <g>
    <g id="Capa_1">
      <path class="cls-1" d="M3.1,25C3.1,10.5,11.6,2,25,2s18.7,6.2,20.1,17.2l-10.1,2c-1.2-6.5-4.1-9.9-10.2-9.9s-11.1,6-11.1,13.8,3.3,14.2,11,14.2,9.2-3.5,10.5-10.1l10.1,1.7c-1.3,11.1-8.7,17.5-20.5,17.5S3.1,39.7,3.1,25"/>
      <path class="cls-1" d="M74.8,38.1h-.7c-2,6.8-6.3,10.4-11.8,10.4s-10.1-4.7-10.1-12.4V12.3h10.1v20.9c0,3.6,1.6,6.1,5.3,6.1s7-3,7-7.5V12.3h10.1v35.1h-9.8v-9.3Z"/>
      <path class="cls-1" d="M91.5,30.6c0-12.1,6.6-19.2,18-19.2s15.9,6.4,15.9,16.1,0,2.9-.2,4.7h-23.8c.6,5.6,3.2,8.1,8,8.1s6.2-2.2,7.1-4.9l8.4,2.3c-1.6,6.1-5.6,10.7-15.6,10.7s-17.8-5.8-17.8-17.8M101.5,27h14.7c-.2-5.5-2.4-8.1-7-8.1s-7.2,2.4-7.7,8.1"/>
      <path class="cls-1" d="M142.5,47.4h-10.1V12.3h9.8v9.4h.7c2.1-6.8,6.4-10.4,11.8-10.4s10.1,4.7,10.1,12.3v23.7h-10.1v-20.9c0-3.5-1.6-6-5.3-6s-7,3-7,7.4v19.5Z"/>
      <path class="cls-1" d="M175,20.3h-4.3v-8h4.3V3.3h10.1v9h9.2v8h-9.2v14.4c0,2.8,1,4.2,4.1,4.2s3.3-.4,4.6-.9l1.1,9c-2.7.8-4.4,1.3-8.3,1.3-8.1,0-11.5-5.4-11.5-12.1v-16.1Z"/>
      <path class="cls-1" d="M222.1,39h-.9c-1.8,5.5-5.5,9.1-11.5,9.1s-10.3-3-10.3-9.9,3.7-10.7,13-10.7h9.2v-2.4c0-3.6-1.6-5.7-5.4-5.7s-5.3,1.6-5.9,5l-9.5-2.1c1.2-6.4,6.1-10.9,15.8-10.9s15,4.9,15,13.7v22.3h-9.5v-8.4ZM221.6,33.9v-1.4h-7.3c-3.3,0-5.3,1.5-5.3,3.9s1.3,4,5.1,4,7.5-2.7,7.5-6.5"/>
      <path class="cls-1" d="M20.8,87.8c-4.7,0-7.5,3-7.5,9.6s2.5,9.8,7.7,9.8,6.2-3,7-6.7l9.2,2.2c-1.2,8.1-6.1,13.2-16.1,13.2s-18.1-6.1-18.1-18.1,6.8-18.9,18-18.9,14.9,5,16.1,13.5l-9.3,1.8c-.9-3.8-2.5-6.4-7-6.4"/>
      <path class="cls-1" d="M42.6,97.5c0-11.7,7-18.5,18.1-18.5s18,6.8,18,18.5-6.8,18.6-18,18.6-18.1-7-18.1-18.6M52.6,97.4c0,6.4,2.3,10.1,8,10.1s8-3.7,8-10.1-2.4-10-8-10-8,3.6-8,10"/>
      <path class="cls-1" d="M95.6,115h-10.1v-35.1h9.8v9.4h.7c2.1-6.8,6.4-10.4,11.8-10.4s10.1,4.7,10.1,12.3v23.7h-10.1v-20.9c0-3.5-1.6-6-5.3-6s-7,3-7,7.4v19.5Z"/>
      <path class="cls-1" d="M136.4,115h-10.1v-35.1h9.8v9.4h.7c2-6.8,6.2-10.4,11.8-10.4s9.2,3.9,9.7,10.5h.8c1.9-6.9,5.9-10.5,11.7-10.5s10.4,4.7,10.4,12.3v23.7h-10.1v-20.9c0-3.5-1.6-6-5.3-6s-7,3-7,7.4v19.5h-10.1v-20.9c0-3.5-1.7-6-5.3-6s-7,3-7,7.4v19.5Z"/>
      <path class="cls-1" d="M189.7,67.7h10.5v7.3h-10.5v-7.3ZM189.9,80h10.1v35.1h-10.1v-35.1Z"/>
      <path class="cls-1" d="M223,128c-13.4,0-17.2-2.7-17.2-7.1s3.5-5.3,8.2-6.3v-.4c-3.8-.5-5.4-2.4-5.4-4.8s1.6-3.8,4.4-5l2.6-1.3c-5.3-1.7-8.1-5.4-8.1-10.9,0-7.8,5.9-12.2,15.9-12.2h17.8v7.5h-3.8c-1.7,0-3.9,0-6.7-.4v.8c4.3.8,8,2.4,8,6.5,0,5.8-5.5,9.6-15.4,9.6s-4.1-.2-5.8-.6l-.6,1c-.4.7-.7,1.3-.7,1.9,0,1.3.9,1.8,3.1,1.8,3.8,0,7.8-.2,11.5-.2,7.8,0,11.3,3.4,11.3,9.1s-4.8,11-19,11M234.2,117.3c0-1.7-1.2-2.9-4-2.9h-11.9c-3.1,0-5,1.5-5,3.2s1.9,3.4,10.3,3.4,10.6-1.3,10.6-3.7M216.4,92.5c0,2.8,1.7,5,6.7,5s6.9-2.1,6.9-5-2.1-5-6.9-5-6.7,2.1-6.7,5"/>
      <path class="cls-1" d="M245.9,97.5c0-11.7,7-18.5,18.1-18.5s18,6.8,18,18.5-6.8,18.6-18,18.6-18.1-7-18.1-18.6M256,97.4c0,6.4,2.3,10.1,8,10.1s8-3.7,8-10.1-2.4-10-8-10-8,3.6-8,10"/>
    </g>
  </g>
</svg>