<?xml version="1.0" encoding="UTF-8"?>
<svg xmlns="http://www.w3.org/2000/svg" xmlns:xlink="http://www.w3.org/1999/xlink" version="1.1" viewBox="0 0 154.1 76.6">
  <defs>
    <style>
      .cls-1 {
        fill: none;
      }

      .cls-2, .cls-3, .cls-4, .cls-5 {
        display: none;
      }

      .cls-2, .cls-6 {
        fill: #ff24c1;
      }

      .cls-7 {
        opacity: .7;
      }

      .cls-7, .cls-4, .cls-5 {
        mix-blend-mode: multiply;
      }

      .cls-8 {
        fill: #8bcd32;
      }

      .cls-9 {
        fill: #009e9b;
      }

      .cls-10 {
        isolation: isolate;
      }

      .cls-11 {
        fill: #232422;
      }

      .cls-3, .cls-12 {
        fill: #fff;
      }

      .cls-13 {
        clip-path: url(#clippath-1);
      }

      .cls-14 {
        clip-path: url(#clippath-3);
      }

      .cls-15 {
        clip-path: url(#clippath-4);
      }

      .cls-16 {
        clip-path: url(#clippath-2);
      }

      .cls-17 {
        clip-path: url(#clippath-6);
      }

      .cls-18 {
        clip-path: url(#clippath-5);
      }

      .cls-4 {
        opacity: .8;
      }

      .cls-5 {
        opacity: .7;
      }

      .cls-19 {
        opacity: .3;
      }

      .cls-20 {
        clip-path: url(#clippath);
      }
    </style>
    <clipPath id="clippath">
      <rect class="cls-1" x="241" y="-47" width="72" height="55"/>
    </clipPath>
    <clipPath id="clippath-1">
      <rect class="cls-1" x="241" y="-47" width="72" height="55"/>
    </clipPath>
    <clipPath id="clippath-2">
      <rect class="cls-1" x="19.5" y="41.5" width="102" height="57"/>
    </clipPath>
    <clipPath id="clippath-3">
      <rect class="cls-1" x="19.5" y="41.5" width="102" height="57"/>
    </clipPath>
    <clipPath id="clippath-4">
      <rect class="cls-1" x="97" y="58" width="57.6" height="5.8"/>
    </clipPath>
    <clipPath id="clippath-5">
      <rect class="cls-1" x="-7.3" y="-61.3" width="142" height="109"/>
    </clipPath>
    <clipPath id="clippath-6">
      <rect class="cls-1" x="-7.3" y="-61.3" width="142" height="109"/>
    </clipPath>
  </defs>
  <!-- Generator: Adobe Illustrator 28.7.1, SVG Export Plug-In . SVG Version: 1.2.0 Build 142)  -->
  <g class="cls-10">
    <g id="Capa_1">
      <rect class="cls-9" y="0" width="97" height="58"/>
      <polygon class="cls-9" points="154.6 58 96.6 58 96.6 0 154.6 58"/>
      <rect class="cls-6" x="97" y="58" width="57.6" height="18.6"/>
      <polygon class="cls-12" points="16.6 19.8 16.6 11.5 13.4 11.5 13.4 9.6 22.1 9.6 22.1 11.5 18.9 11.5 18.9 19.8 16.6 19.8"/>
      <g>
        <path class="cls-12" d="M21.7,19.8l3.9-10.2h2.7l3.9,10.2h-2.4l-.7-2h-4.5l-.7,2h-2.3ZM25.3,16h3.2l-.9-2.5c0-.1,0-.2-.1-.4,0-.2-.1-.3-.2-.5,0-.2-.1-.4-.2-.6,0-.2-.1-.4-.2-.5h0c0,.2-.1.4-.2.7,0,.3-.2.5-.2.7,0,.2-.1.4-.2.6l-.9,2.5Z"/>
        <path class="cls-12" d="M33.8,19.8v-10.2h3.4l1.5,5.2c0,.2.1.4.2.7,0,.3.1.5.2.8,0,.3.1.5.2.7h.1c0-.2,0-.4.1-.6,0-.2.1-.5.2-.8,0-.3.1-.5.2-.8l1.5-5.2h3.3v10.2h-2.2v-4.8c0-.4,0-.9,0-1.3,0-.5,0-.8,0-1.2,0-.3,0-.6,0-.7h-.1c0,.1,0,.3-.1.6,0,.3-.2.6-.2.9,0,.3-.2.6-.2.8l-1.6,5.6h-1.9l-1.6-5.6c0-.2-.1-.5-.2-.7,0-.3-.1-.6-.2-.9,0-.3-.1-.6-.2-.8h-.1c0,.3,0,.6,0,1,0,.4,0,.8,0,1.1,0,.4,0,.8,0,1.1v4.8h-2.1Z"/>
        <path class="cls-12" d="M46,19.8l3.9-10.2h2.7l3.9,10.2h-2.4l-.7-2h-4.5l-.7,2h-2.3ZM49.7,16h3.2l-.9-2.5c0-.1,0-.2-.1-.4,0-.2-.1-.3-.2-.5,0-.2-.1-.4-.2-.6,0-.2-.1-.4-.2-.5h0c0,.2-.1.4-.2.7,0,.3-.2.5-.2.7,0,.2-.1.4-.2.6l-.9,2.5Z"/>
        <path class="cls-12" d="M58.1,19.8v-10.2h5.6c.8,0,1.4.1,1.9.4s.9.6,1.1,1.1c.2.5.4,1,.4,1.7s-.1,1.3-.4,1.8c-.3.5-.7.9-1.3,1.2l2.1,4.1h-2.5l-1.8-3.7h-2.8v3.7h-2.2ZM60.3,14.3h3.1c.4,0,.8-.1,1-.4.2-.3.4-.6.4-1.1s0-.6-.2-.8c-.1-.2-.3-.4-.5-.5-.2-.1-.5-.2-.8-.2h-3.1v2.9Z"/>
        <path class="cls-12" d="M68.2,19.8l3.9-10.2h2.7l3.9,10.2h-2.4l-.7-2h-4.5l-.7,2h-2.3ZM71.9,16h3.2l-.9-2.5c0-.1,0-.2-.1-.4,0-.2-.1-.3-.2-.5,0-.2-.1-.4-.2-.6,0-.2-.1-.4-.2-.5h0c0,.2-.1.4-.2.7,0,.3-.2.5-.2.7,0,.2-.1.4-.2.6l-.9,2.5Z"/>
        <path class="cls-12" d="M17.2,40.5c-.8,0-1.5-.1-2.1-.4-.6-.3-1-.7-1.3-1.3s-.5-1.4-.5-2.3c0-1.4.3-2.4,1-3.1.7-.7,1.6-1,2.9-1s1.3.1,1.8.3c.5.2,1,.6,1.3,1,.3.5.5,1,.5,1.7h-1.7c0-.4,0-.7-.2-.9-.1-.3-.4-.4-.6-.6-.3-.1-.6-.2-.9-.2s-.9,0-1.2.3c-.3.2-.5.5-.7.8-.1.4-.2.8-.2,1.4v.4c0,.5,0,1,.2,1.4.2.4.4.6.7.8.3.2.7.3,1.2.3s.7,0,1-.2c.3-.1.5-.3.7-.6.2-.3.2-.6.2-.9h1.6c0,.7-.2,1.3-.5,1.7-.3.5-.7.8-1.3,1-.5.2-1.1.3-1.8.3"/>
        <path class="cls-12" d="M26,40.5c-.8,0-1.5-.1-2.1-.4-.6-.3-1.1-.7-1.4-1.3-.3-.6-.5-1.4-.5-2.3s.2-1.7.5-2.3c.3-.6.8-1,1.4-1.3.6-.3,1.3-.4,2.1-.4s1.6.1,2.2.4c.6.3,1.1.7,1.4,1.3.3.6.5,1.4.5,2.3s-.2,1.7-.5,2.3c-.3.6-.8,1.1-1.4,1.3-.6.3-1.3.4-2.2.4M26,39.1c.4,0,.7,0,1-.2.3-.1.5-.3.7-.5.2-.2.3-.5.4-.8,0-.3.1-.7.1-1.1v-.4c0-.4,0-.8-.1-1.1,0-.3-.2-.6-.4-.8-.2-.2-.4-.4-.7-.5-.3-.1-.6-.2-1-.2s-.7,0-1,.2c-.3.1-.5.3-.7.5-.2.2-.3.5-.4.8,0,.3-.1.7-.1,1.1v.4c0,.4,0,.7.1,1.1,0,.3.2.6.4.8.2.2.4.4.7.5.3.1.6.2,1,.2"/>
        <path class="cls-12" d="M31.6,40.4v-7.8h1.6l3.2,4.2c0,0,.1.1.2.2,0,0,.1.2.2.3,0,0,.1.2.1.2h0v-4.9h1.6v7.8h-1.6l-3.2-4.3c0-.1-.2-.2-.2-.4,0-.1-.1-.2-.2-.3h0v5h-1.6Z"/>
        <path class="cls-12" d="M44,40.5c-.8,0-1.5-.1-2.1-.4-.6-.3-1-.7-1.3-1.3-.3-.6-.5-1.4-.5-2.3,0-1.4.3-2.4,1-3.1.7-.7,1.6-1,2.9-1s1.3.1,1.8.3c.5.2,1,.6,1.3,1,.3.5.5,1,.5,1.7h-1.7c0-.4,0-.7-.2-.9-.1-.3-.4-.4-.6-.6-.3-.1-.6-.2-.9-.2s-.9,0-1.2.3c-.3.2-.5.5-.7.8-.1.4-.2.8-.2,1.4v.4c0,.5,0,1,.2,1.4.2.4.4.6.7.8.3.2.7.3,1.2.3s.7,0,1-.2c.3-.1.5-.3.7-.6.2-.3.2-.6.2-.9h1.6c0,.7-.2,1.3-.5,1.7-.3.5-.7.8-1.3,1-.5.2-1.1.3-1.8.3"/>
        <polygon class="cls-12" points="49.1 40.4 49.1 32.5 55.3 32.5 55.3 33.9 50.8 33.9 50.8 35.7 54.8 35.7 54.8 37 50.8 37 50.8 39 55.4 39 55.4 40.4 49.1 40.4"/>
        <path class="cls-12" d="M59.2,40.5c-.6,0-1.1,0-1.5-.3s-.7-.4-1-.8c-.2-.4-.3-.8-.3-1.4v-.4h1.7v.4c0,.3,0,.6.3.8.2.2.5.3.9.3s.7-.1.8-.4c.2-.2.3-.6.3-1.1v-5.1h1.7v5.1c0,.6-.1,1.2-.3,1.6-.2.4-.5.7-1,.9-.4.2-.9.3-1.5.3"/>
        <path class="cls-12" d="M63.2,40.4l3-7.8h2.1l3,7.8h-1.8l-.6-1.5h-3.4l-.6,1.5h-1.8ZM66,37.4h2.4l-.7-1.9c0,0,0-.2-.1-.3,0-.1,0-.2-.1-.4,0-.1,0-.3-.1-.4s0-.3-.1-.4h0c0,.1,0,.3-.1.5,0,.2-.1.4-.2.6,0,.2-.1.3-.1.4l-.7,1.9Z"/>
        <polygon class="cls-12" points="72.5 40.4 72.5 32.5 74.2 32.5 74.2 38.9 78.1 38.9 78.1 40.4 72.5 40.4"/>
        <path class="cls-12" d="M78.7,40.4l3-7.8h2.1l3,7.8h-1.8l-.6-1.5h-3.4l-.6,1.5h-1.8ZM81.5,37.4h2.4l-.7-1.9c0,0,0-.2-.1-.3,0-.1,0-.2-.1-.4,0-.1,0-.3-.1-.4s0-.3-.1-.4h0c0,.1,0,.3-.1.5,0,.2-.1.4-.2.6,0,.2-.1.3-.1.4l-.7,1.9Z"/>
        <path class="cls-8" d="M45.4,26.3h-1.2l-.4,2.4h-1.2l1.1-6.4h2.6c1.6,0,2.3.8,2,2.2-.2.9-.8,1.5-1.7,1.7l1.3,2.4h0c0,.1-1.4.1-1.4.1l-1.2-2.4ZM44.7,23.3l-.3,1.9h1.3c.8,0,1.3-.3,1.4-.9.1-.7-.2-1-1.1-1h-1.4Z"/>
        <path class="cls-8" d="M51.4,23.6c1,0,1.5.6,1.5,1.5h0s.2-1.4.2-1.4h1.1l-.9,5h-1.1l.2-1.3h0s0-.1,0-.1c-.4.9-1.1,1.6-2,1.6s-1.7-1-1.4-2.8c.3-1.6,1.1-2.5,2.2-2.5M52.7,26.6v-.3s.1-.4.1-.4c.1-.8-.3-1.3-1.1-1.3s-1.3.5-1.5,1.5c-.2,1.1.1,1.7,1,1.7s1.3-.5,1.5-1.2"/>
        <path class="cls-8" d="M56,28.7h-1.1l.9-5h1.1l-.2,1.3h0c.4-.9,1.1-1.4,1.9-1.4s1.3.6,1.3,1.5h.1c.4-1,1.1-1.5,2-1.5s1.5.7,1.3,1.9l-.6,3.3h-1.1l.5-3c.1-.6-.1-1-.8-1s-1.2.4-1.4,1.1l-.5,3h-1.1l.5-3c.1-.6-.1-1-.8-1s-1.3.5-1.5,1.3l-.5,2.8Z"/>
        <path class="cls-8" d="M65.2,28.7h-1.1l.9-5h1.1l-.2,1.3h0c.4-.9,1.1-1.4,1.9-1.4s1.3.6,1.3,1.5h.1c.4-1,1.1-1.5,2-1.5s1.5.7,1.3,1.9l-.6,3.3h-1.1l.5-3c.1-.6-.1-1-.8-1s-1.2.4-1.4,1.1l-.5,3h-1.1l.5-3c.1-.6-.1-1-.8-1s-1.3.5-1.5,1.3l-.5,2.8Z"/>
        <path class="cls-8" d="M73.2,27.2l1.1-.2c0,.6.4,1,1.2,1s.9-.2,1-.6c0-.4-.2-.7-1.1-.8-1.3-.3-1.7-.9-1.5-1.7.2-.8.8-1.3,2.1-1.3s1.8.6,1.9,1.5l-1.1.2c0-.6-.3-.8-.9-.8s-.9.2-.9.5c0,.4.1.6,1,.8,1.4.3,1.8.9,1.6,1.7-.1.8-.8,1.3-2.2,1.3s-2.1-.7-2.2-1.6"/>
        <path class="cls-8" d="M77.6,30.5l.3-1c.2,0,.4,0,.6,0,.6,0,.9-.1,1.3-.9l-1.1-4.9h1.2l.3,1.8c0,.6.2,1.5.3,2.2h.2c.3-.7.8-1.5,1-2.2l.9-1.8h1.3l-2.9,5c-.7,1.2-1.4,1.8-2.6,1.8s-.5,0-.7,0"/>
        <polygon class="cls-8" points="33 49.8 34 44.1 34.9 44.1 33.9 49.8 33 49.8"/>
        <path class="cls-8" d="M35.9,49.8h-.8l.8-4.4h.8l-.2,1.1h0c.4-.8,1-1.3,1.7-1.3s1.4.7,1.2,1.7l-.5,2.9h-.8l.5-2.7c.1-.6-.1-1.1-.8-1.1s-1.4.5-1.5,1.3l-.4,2.5Z"/>
        <path class="cls-8" d="M43.4,48.6h0c-.3.8-1,1.3-1.8,1.3s-1.6-.9-1.3-2.5c.3-1.4,1-2.2,2-2.2s1.3.5,1.4,1.3h0l.5-2.8h.8l-1.1,6.1h-.8l.2-1.2ZM43.6,47.9v-.2s0-.3,0-.3c.1-.8-.3-1.4-1.1-1.4s-1.3.5-1.5,1.6c-.2,1.1.1,1.6,1,1.6s1.3-.5,1.5-1.3"/>
        <path class="cls-8" d="M45.3,47.4c.2-1.4,1.2-2.2,2.5-2.2s1.9.9,1.7,2.1c0,.1,0,.3,0,.4h-3.4c0,.9.3,1.4,1.2,1.4s1.1-.4,1.4-.9l.7.2c-.4.8-1,1.4-2.1,1.4s-2.1-.9-1.9-2.5M46.2,47.2h2.6c.1-.8-.2-1.3-1-1.3s-1.3.4-1.6,1.3"/>
        <path class="cls-8" d="M52.5,49.9c-.8,0-1.3-.6-1.4-1.3h0l-.5,2.6h-.8l1-5.9h.8l-.2,1.2h0c.4-.8.9-1.3,1.7-1.3s1.6.9,1.4,2.4c-.3,1.5-1,2.2-2.1,2.2M53.8,47.6c.2-1.1-.1-1.6-1-1.6s-1.4.6-1.6,1.4h0s0,.4,0,.4h0c-.2.8.3,1.4,1.1,1.4s1.3-.5,1.5-1.5"/>
        <path class="cls-8" d="M55.2,47.4c.2-1.4,1.2-2.2,2.5-2.2s1.9.9,1.7,2.1c0,.1,0,.3,0,.4h-3.4c0,.9.3,1.4,1.2,1.4s1.1-.4,1.4-.9l.7.2c-.4.8-1,1.4-2.1,1.4s-2.1-.9-1.9-2.5M56.1,47.2h2.6c.1-.8-.2-1.3-1-1.3s-1.3.4-1.6,1.3"/>
        <path class="cls-8" d="M60.7,49.8h-.8l.8-4.4h.8l-.2,1.1h0c.4-.8,1-1.3,1.7-1.3s1.4.7,1.2,1.7l-.5,2.9h-.8l.5-2.7c.1-.6-.1-1.1-.8-1.1s-1.4.5-1.5,1.3l-.4,2.5Z"/>
        <path class="cls-8" d="M68.3,48.6h0c-.3.8-1,1.3-1.8,1.3s-1.6-.9-1.3-2.5c.3-1.4,1-2.2,2-2.2s1.3.5,1.4,1.3h0l.5-2.8h.8l-1.1,6.1h-.8l.2-1.2ZM68.4,47.9v-.2s0-.3,0-.3c.1-.8-.3-1.4-1.1-1.4s-1.3.5-1.5,1.6c-.2,1.1.1,1.6,1,1.6s1.3-.5,1.5-1.3"/>
        <path class="cls-8" d="M70.1,49.8l.8-4.4h.8l-.8,4.4h-.8ZM71,44.5v-.8h1.1v.8h-1.1Z"/>
        <path class="cls-8" d="M72.3,47.4c.2-1.4,1.2-2.2,2.5-2.2s1.9.9,1.7,2.1c0,.1,0,.3,0,.4h-3.4c0,.9.3,1.4,1.2,1.4s1.1-.4,1.4-.9l.7.2c-.4.8-1,1.4-2.1,1.4s-2.1-.9-1.9-2.5M73.2,47.2h2.6c.1-.8-.2-1.3-1-1.3s-1.3.4-1.6,1.3"/>
        <path class="cls-8" d="M77.8,49.8h-.8l.8-4.4h.8l-.2,1.1h0c.4-.8,1-1.3,1.7-1.3s1.4.7,1.2,1.7l-.5,2.9h-.8l.5-2.7c.1-.6-.1-1.1-.8-1.1s-1.4.5-1.5,1.3l-.4,2.5Z"/>
        <path class="cls-8" d="M83,46h-.7v-.7h.8l.2-1.2h.8l-.2,1.2h1.4v.7h-1.5l-.4,2.3c0,.5,0,.8.6.8s.4,0,.7-.1v.7c-.3,0-.6.2-.9.2-1,0-1.3-.7-1.1-1.5l.4-2.3Z"/>
        <path class="cls-8" d="M85.6,47.4c.2-1.4,1.2-2.2,2.5-2.2s1.9.9,1.7,2.1c0,.1,0,.3,0,.4h-3.4c0,.9.3,1.4,1.2,1.4s1.1-.4,1.4-.9l.7.2c-.4.8-1,1.4-2.1,1.4s-2.1-.9-1.9-2.5M86.4,47.2h2.6c.1-.8-.2-1.3-1-1.3s-1.3.4-1.6,1.3"/>
        <g class="cls-4">
          <g class="cls-20">
            <g class="cls-13">
              <image width="72" height="55" transform="translate(241 -47)" xlink:href="lema-01-1.png"/>
            </g>
          </g>
        </g>
        <g class="cls-7">
          <g class="cls-16">
            <g class="cls-14">
              <image width="102" height="57" transform="translate(19.5 41.5)" xlink:href="lema-01-2.png"/>
            </g>
          </g>
        </g>
        <path class="cls-12" d="M38.3,67.8v1.8h-1v-5.4h2.2c1.3,0,2,.6,2,1.8s-.7,1.8-2,1.8h-1.2ZM38.3,65.1v1.9h1.1c.8,0,1.1-.3,1.1-.9s-.3-1-1.1-1h-1.1Z"/>
        <path class="cls-12" d="M45.1,68.5h0c-.2.8-.8,1.2-1.5,1.2s-1.3-.6-1.3-1.5v-2.8h1v2.6c0,.5.2.9.8.9s1.1-.4,1.1-1.1v-2.4h1v4.2h-.9v-1.1Z"/>
        <path class="cls-12" d="M47,67.5c0-1.4.8-2.3,2.1-2.3s1.9.8,1.9,1.9,0,.4,0,.6h-3c0,.8.5,1.2,1.2,1.2s.9-.3,1-.7l.8.2c-.2.8-.7,1.3-1.9,1.3s-2.1-.8-2.1-2.2M48,67.1h2.2c0-.7-.4-1.1-1-1.1s-1,.4-1.1,1.1"/>
        <path class="cls-12" d="M52,69.6v-4.2h.9v1.3h0c.2-1,.6-1.3,1.2-1.3h.2v1.1h-.2c-.9,0-1.2.3-1.2,1.2v2h-1Z"/>
        <path class="cls-12" d="M55.5,66.2h-.6v-.8h.6v-1.1h1v1.1h1.2v.8h-1.2v2c0,.4.2.6.6.6s.4,0,.6-.1v.9c-.2,0-.4.2-.8.2-.9,0-1.3-.6-1.3-1.4v-2.2Z"/>
        <path class="cls-12" d="M58.4,67.5c0-1.4.8-2.2,2.1-2.2s2.1.8,2.1,2.2-.8,2.2-2.1,2.2-2.1-.9-2.1-2.2M59.3,67.5c0,.9.4,1.4,1.2,1.4s1.2-.5,1.2-1.4-.4-1.4-1.2-1.4-1.2.5-1.2,1.4"/>
        <path class="cls-12" d="M66.9,69.6l-2-5.4h1.1l1,2.8c.2.5.4,1.2.5,1.7h.2c.2-.5.4-1.2.5-1.7l1-2.8h1.1l-2,5.4h-1.4Z"/>
        <path class="cls-12" d="M73.5,68.6h0c-.2.7-.7,1.1-1.4,1.1s-1.3-.4-1.3-1.2.5-1.3,1.5-1.3h1.3v-.3c0-.5-.2-.9-.8-.9s-.8.3-.9.7l-.9-.2c.2-.8.8-1.3,1.8-1.3s1.7.6,1.7,1.6v2.7h-.9v-1ZM73.5,68v-.2h-1.1c-.5,0-.8.2-.8.5s.2.6.7.6,1.1-.4,1.1-.9"/>
        <path class="cls-12" d="M75.6,69.6v-4.2h.9v1.3h0c.2-1,.6-1.3,1.2-1.3h.2v1.1h-.2c-.9,0-1.2.3-1.2,1.2v2h-1Z"/>
        <path class="cls-12" d="M81.4,68.6h0c-.2.7-.7,1.1-1.4,1.1s-1.3-.4-1.3-1.2.5-1.3,1.5-1.3h1.3v-.3c0-.5-.2-.9-.8-.9s-.8.3-.9.7l-.9-.2c.2-.8.8-1.3,1.8-1.3s1.7.6,1.7,1.6v2.7h-.9v-1ZM81.4,68v-.2h-1.1c-.5,0-.8.2-.8.5s.2.6.7.6,1.1-.4,1.1-.9"/>
        <path class="cls-12" d="M83.2,68.4l.9-.2c.1.5.4.8,1.1.8s.8-.2.8-.5-.2-.5-1.1-.6c-1.1-.2-1.5-.6-1.5-1.3s.6-1.2,1.7-1.2,1.6.5,1.7,1.2l-.9.2c-.1-.5-.4-.7-.9-.7s-.7.2-.7.5.2.5,1,.6c1.3.2,1.6.7,1.6,1.3s-.5,1.3-1.7,1.3-1.8-.6-2-1.4"/>
        <g class="cls-19">
          <g class="cls-15">
            <polygon class="cls-11" points="97 63.8 154.6 58 97 58 97 63.8"/>
          </g>
        </g>
        <path class="cls-3" d="M174.4,168.7c-.3,0-.5,0-.7-.1-.2,0-.3-.2-.5-.4-.1-.2-.2-.4-.2-.7s0-.5.1-.6c0-.2.2-.3.3-.4.1-.1.3-.2.5-.2.2,0,.4,0,.6,0s.4,0,.5,0c.2,0,.3.1.4.2.1,0,.2.2.3.4,0,.1.1.3.1.5s0,.3,0,.4c0,.1,0,.2-.1.3,0,0-.1.1-.2.2,0,0-.1,0-.2,0,0,0-.1,0-.2,0,0,0-.2,0-.2,0,0,0,0,0-.1,0,0,0,0,0,0,0h0s0,0-.1.1c0,0,0,0-.2,0,0,0-.1,0-.2,0s0,0-.1,0c0,0-.1,0-.2,0,0,0,0,0-.1-.1,0,0,0-.1,0-.2s0-.2,0-.2c0,0,.1-.1.2-.2,0,0,.2,0,.3,0,.1,0,.2,0,.4,0h0c0-.2,0-.2,0-.2,0,0,0,0,0,0,0,0,0,0-.2,0s-.1,0-.2,0c0,0,0,0,0,0,0,0,0,0,0,0h0s-.3,0-.3,0c0,0,0,0,0,0h0c0-.1,0-.2,0-.2,0,0,.1-.1.2-.1,0,0,.2,0,.3,0s.2,0,.3,0c0,0,.1,0,.2.2,0,0,0,.2,0,.2v.7s0,0,0,0c0,0,0,0,0,0,0,0,.1,0,.2,0,0,0,.1-.1.1-.2,0,0,0-.2,0-.4s0-.4-.1-.5c0-.1-.2-.2-.4-.3-.2,0-.4,0-.6,0s-.5,0-.6.1c-.2,0-.3.2-.4.4,0,.2-.1.4-.1.6s0,.6.3.8c.2.2.4.3.8.3s.1,0,.2,0c0,0,.1,0,.2,0,0,0,.1,0,.2,0v.2c0,0-.1,0-.2,0,0,0-.1,0-.2,0,0,0-.1,0-.2,0M174.4,167.9c0,0,.1,0,.2,0,0,0,0,0,.1,0,0,0,0,0,0-.1,0,0,0,0,0-.2h0c-.1,0-.2,0-.3,0,0,0-.2,0-.2,0,0,0,0,0,0,.2s0,0,0,0c0,0,0,0,0,0,0,0,0,0,.1,0"/>
        <path class="cls-3" d="M176.7,168.3c-.1,0-.2,0-.2,0,0,0,0,0-.1-.2,0,0,0-.1,0-.2v-.9h-.2v-.3h.2v-.5h.4v.5h.3v.3h-.3v.9s0,0,0,0c0,0,0,0,.1,0h.1v.3s0,0,0,0c0,0,0,0,0,0s0,0,0,0"/>
        <path class="cls-3" d="M177.7,168.3s0,0-.2,0c0,0-.1,0-.2,0,0,0,0,0-.1-.1,0,0,0-.1,0-.2s0-.2,0-.3.1-.1.2-.2c0,0,.2,0,.3,0,.1,0,.3,0,.4,0h0c0-.2,0-.2,0-.3,0,0,0,0,0,0,0,0,0,0-.2,0s-.1,0-.2,0c0,0,0,0,0,0,0,0,0,0,0,0h0s-.4,0-.4,0c0,0,0,0,0,0h0c0-.1,0-.2,0-.3,0,0,.1-.1.2-.2,0,0,.2,0,.3,0s.3,0,.4,0c0,0,.2,0,.2.2,0,0,0,.2,0,.3v.8s0,0,0,0c0,0,0,0,0,0h0v.3s0,0,0,0c0,0,0,0-.1,0s-.1,0-.1,0c0,0,0,0-.1,0,0,0,0,0,0-.1h0s0,0-.1.1c0,0-.1,0-.2,0,0,0-.1,0-.2,0M177.9,168c0,0,.1,0,.2,0,0,0,0,0,.1,0,0,0,0,0,0-.1,0,0,0,0,0-.2h0c-.1,0-.2,0-.3,0,0,0-.2,0-.2,0,0,0,0,0,0,.2s0,0,0,0c0,0,0,0,0,0,0,0,0,0,.1,0"/>
        <path class="cls-3" d="M179.1,168.3v-1.6h.3v.2h0s0,0,.1-.1c0,0,0,0,.2,0,0,0,.1,0,.2,0s.2,0,.3,0c0,0,.1.1.2.2h0s0,0,.1-.1c0,0,.1,0,.2,0,0,0,.1,0,.2,0s.2,0,.3,0c0,0,.1,0,.2.2,0,0,0,.2,0,.3v1.1h-.4v-1c0,0,0-.1,0-.1,0,0,0,0,0,0,0,0,0,0,0,0,0,0,0,0-.1,0,0,0-.1,0-.2,0,0,0,0,0-.1.1s0,.1,0,.2v.9h-.4v-1c0,0,0-.1,0-.1,0,0,0,0,0,0,0,0,0,0,0,0,0,0,0,0-.1,0,0,0-.1,0-.2,0,0,0,0,0-.1.1s0,.1,0,.2v.9h-.4Z"/>
        <path class="cls-3" d="M182.2,168.3s0,0-.2,0c0,0-.1,0-.2,0,0,0,0,0-.1-.1,0,0,0-.1,0-.2s0-.2,0-.3.1-.1.2-.2c0,0,.2,0,.3,0,.1,0,.3,0,.4,0h0c0-.2,0-.2,0-.3,0,0,0,0,0,0,0,0,0,0-.2,0s-.1,0-.2,0c0,0,0,0,0,0,0,0,0,0,0,0h0s-.4,0-.4,0c0,0,0,0,0,0h0c0-.1,0-.2,0-.3,0,0,.1-.1.2-.2,0,0,.2,0,.3,0s.3,0,.4,0c0,0,.2,0,.2.2,0,0,0,.2,0,.3v.8s0,0,0,0c0,0,0,0,0,0h0v.3s0,0,0,0c0,0,0,0-.1,0s-.1,0-.1,0c0,0,0,0-.1,0,0,0,0,0,0-.1h0s0,0-.1.1c0,0-.1,0-.2,0,0,0-.1,0-.2,0M182.3,168c0,0,.1,0,.2,0,0,0,0,0,.1,0,0,0,0,0,0-.1,0,0,0,0,0-.2h0c-.1,0-.2,0-.3,0,0,0-.2,0-.2,0,0,0,0,0,0,.2s0,0,0,0c0,0,0,0,0,0,0,0,0,0,.1,0"/>
        <path class="cls-3" d="M183.6,168.3v-1.6h.3v.3h0c0,0,0,0,0-.1,0,0,0,0,.1-.1,0,0,.1,0,.2,0s0,0,0,0c0,0,0,0,0,0v.4h-.1c0,0-.1,0-.2,0,0,0,0,0-.1,0,0,0,0,0,0,.1,0,0,0,.1,0,.2v.8h-.4Z"/>
        <path class="cls-3" d="M185.1,168.3s0,0-.2,0c0,0-.1,0-.2,0,0,0,0,0-.1-.1,0,0,0-.1,0-.2s0-.2,0-.3.1-.1.2-.2c0,0,.2,0,.3,0,.1,0,.3,0,.4,0h0c0-.2,0-.2,0-.3,0,0,0,0,0,0,0,0,0,0-.2,0s-.1,0-.2,0c0,0,0,0,0,0,0,0,0,0,0,0h0s-.4,0-.4,0c0,0,0,0,0,0h0c0-.1,0-.2,0-.3,0,0,.1-.1.2-.2,0,0,.2,0,.3,0s.3,0,.4,0c0,0,.2,0,.2.2,0,0,0,.2,0,.3v.8s0,0,0,0c0,0,0,0,0,0h0v.3s0,0,0,0c0,0,0,0-.1,0s-.1,0-.1,0c0,0,0,0-.1,0,0,0,0,0,0-.1h0s0,0-.1.1c0,0-.1,0-.2,0,0,0-.1,0-.2,0M185.3,168c0,0,.1,0,.2,0,0,0,0,0,.1,0,0,0,0,0,0-.1,0,0,0,0,0-.2h0c-.1,0-.2,0-.3,0,0,0-.2,0-.2,0,0,0,0,0,0,.2s0,0,0,0c0,0,0,0,0,0,0,0,0,0,.1,0"/>
        <rect class="cls-3" x="186.6" y="167.9" width=".4" height=".4"/>
        <path class="cls-3" d="M187.5,168.3v-1.6h.3v.3h0c0,0,0,0,0-.1,0,0,0,0,.1-.1,0,0,.1,0,.2,0s0,0,0,0c0,0,0,0,0,0v.4h-.1c0,0-.1,0-.2,0,0,0,0,0-.1,0,0,0,0,0,0,.1,0,0,0,.1,0,.2v.8h-.4Z"/>
        <path class="cls-3" d="M189,168.3s0,0-.2,0c0,0-.1,0-.2,0,0,0,0,0-.1-.1,0,0,0-.1,0-.2s0-.2,0-.3.1-.1.2-.2c0,0,.2,0,.3,0,.1,0,.3,0,.4,0h0c0-.2,0-.2,0-.3,0,0,0,0,0,0,0,0,0,0-.2,0s-.1,0-.2,0c0,0,0,0,0,0,0,0,0,0,0,0h0s-.4,0-.4,0c0,0,0,0,0,0h0c0-.1,0-.2,0-.3,0,0,.1-.1.2-.2,0,0,.2,0,.3,0s.3,0,.4,0c0,0,.2,0,.2.2,0,0,0,.2,0,.3v.8s0,0,0,0c0,0,0,0,0,0h0v.3s0,0,0,0c0,0,0,0-.1,0s-.1,0-.1,0c0,0,0,0-.1,0,0,0,0,0,0-.1h0s0,0-.1.1c0,0-.1,0-.2,0,0,0-.1,0-.2,0M189.2,168c0,0,.1,0,.2,0,0,0,0,0,.1,0,0,0,0,0,0-.1,0,0,0,0,0-.2h0c-.1,0-.2,0-.3,0,0,0-.2,0-.2,0,0,0,0,0,0,.2s0,0,0,0c0,0,0,0,0,0,0,0,0,0,.1,0"/>
        <path class="cls-3" d="M190.4,168.3v-1.6h.3v.2h0s0,0,.1-.1c0,0,0,0,.2,0,0,0,.1,0,.2,0s.2,0,.3,0c0,0,.1.1.2.2h0s0,0,.1-.1c0,0,.1,0,.2,0,0,0,.1,0,.2,0s.2,0,.3,0c0,0,.1,0,.2.2,0,0,0,.2,0,.3v1.1h-.4v-1c0,0,0-.1,0-.1,0,0,0,0,0,0,0,0,0,0,0,0,0,0,0,0-.1,0,0,0-.1,0-.2,0,0,0,0,0-.1.1s0,.1,0,.2v.9h-.4v-1c0,0,0-.1,0-.1,0,0,0,0,0,0,0,0,0,0,0,0,0,0,0,0-.1,0,0,0-.1,0-.2,0,0,0,0,0-.1.1s0,.1,0,.2v.9h-.4Z"/>
        <path class="cls-3" d="M193.1,168.3v-1.6h.3v.2h0s0,0,.1-.1c0,0,0,0,.2,0,0,0,.1,0,.2,0s.2,0,.3,0c0,0,.1.1.2.2h0s0,0,.1-.1c0,0,.1,0,.2,0,0,0,.1,0,.2,0s.2,0,.3,0c0,0,.1,0,.2.2,0,0,0,.2,0,.3v1.1h-.4v-1c0,0,0-.1,0-.1,0,0,0,0,0,0,0,0,0,0,0,0,0,0,0,0-.1,0,0,0-.1,0-.2,0,0,0,0,0-.1.1s0,.1,0,.2v.9h-.4v-1c0,0,0-.1,0-.1,0,0,0,0,0,0,0,0,0,0,0,0,0,0,0,0-.1,0,0,0-.1,0-.2,0,0,0,0,0-.1.1s0,.1,0,.2v.9h-.4Z"/>
        <path class="cls-3" d="M196.5,168.3c-.1,0-.2,0-.3,0,0,0-.2,0-.2-.1,0,0-.1,0-.1-.2,0,0,0-.1,0-.2s0,0,0,0c0,0,0,0,0,0h.4c0,0,0,.1,0,.2,0,0,0,0,.1,0s.1,0,.2,0,.1,0,.2,0c0,0,0,0,.1,0,0,0,0,0,0,0s0,0,0-.1,0,0-.2,0c0,0-.1,0-.2,0,0,0-.1,0-.2,0,0,0-.1,0-.2,0s0,0-.1-.1c0,0,0-.1,0-.2s0-.1,0-.2c0,0,0-.1.1-.1,0,0,.1,0,.2,0,0,0,.2,0,.3,0s.2,0,.3,0c0,0,.1,0,.2,0,0,0,.1,0,.1.1,0,0,0,.1,0,.2s0,0,0,0c0,0,0,0,0,0h-.4c0,0,0,0,0-.1,0,0,0,0-.1,0,0,0,0,0-.2,0s0,0-.1,0c0,0,0,0,0,0,0,0,0,0,0,0,0,0,0,0,0,0,0,0,0,0,0,0,0,0,0,0,.1,0,0,0,.1,0,.2,0,0,0,.1,0,.2,0,0,0,.1,0,.2,0,0,0,.1,0,.2.1,0,0,0,.1,0,.2s0,.2,0,.2c0,0,0,.1-.2.2,0,0-.1,0-.2,0,0,0-.2,0-.3,0"/>
        <path class="cls-3" d="M197.8,168.8c0,0-.1,0-.2,0,0,0,0,0,0,0v-.3h.2s0,0,.1,0c0,0,0,0,.1,0,0,0,0,0,0-.1l-.6-1.6h.4l.3.8s0,0,0,.1c0,0,0,.1,0,.2,0,0,0,.1,0,.2h0s0,0,0-.1,0,0,0-.1c0,0,0,0,0-.1,0,0,0,0,0-.1l.2-.8h.4l-.5,1.5c0,0,0,.2-.1.2s0,.1-.1.2c0,0-.1.1-.2.1,0,0-.1,0-.2,0"/>
        <path class="cls-3" d="M199.9,168.3c-.1,0-.2,0-.3,0,0,0-.2,0-.2-.1,0,0-.1,0-.1-.2,0,0,0-.1,0-.2s0,0,0,0c0,0,0,0,0,0h.4c0,0,0,.1,0,.2,0,0,0,0,.1,0s.1,0,.2,0,.1,0,.2,0c0,0,0,0,.1,0,0,0,0,0,0,0s0,0,0-.1,0,0-.2,0c0,0-.1,0-.2,0,0,0-.1,0-.2,0,0,0-.1,0-.2,0s0,0-.1-.1c0,0,0-.1,0-.2s0-.1,0-.2c0,0,0-.1.1-.1,0,0,.1,0,.2,0,0,0,.2,0,.3,0s.2,0,.3,0c0,0,.1,0,.2,0,0,0,.1,0,.1.1,0,0,0,.1,0,.2s0,0,0,0c0,0,0,0,0,0h-.4c0,0,0,0,0-.1,0,0,0,0-.1,0,0,0,0,0-.2,0s0,0-.1,0c0,0,0,0,0,0,0,0,0,0,0,0,0,0,0,0,0,0,0,0,0,0,0,0,0,0,0,0,.1,0,0,0,.1,0,.2,0,0,0,.1,0,.2,0,0,0,.1,0,.2,0,0,0,.1,0,.2.1,0,0,0,.1,0,.2s0,.2,0,.2c0,0,0,.1-.2.2,0,0-.1,0-.2,0,0,0-.2,0-.3,0"/>
        <polygon class="cls-3" points="173.7 173.2 173.7 171.4 173 171.4 173 171 174.8 171 174.8 171.4 174.1 171.4 174.1 173.2 173.7 173.2"/>
        <path class="cls-3" d="M175.3,173.2s0,0-.2,0c0,0-.1,0-.2,0,0,0,0,0-.1-.1,0,0,0-.1,0-.2s0-.2,0-.3.1-.1.2-.2c0,0,.2,0,.3,0,.1,0,.3,0,.4,0h0c0-.2,0-.2,0-.3,0,0,0,0,0,0,0,0,0,0-.2,0s-.1,0-.2,0c0,0,0,0,0,0,0,0,0,0,0,0h0s-.4,0-.4,0c0,0,0,0,0,0h0c0-.1,0-.2,0-.3,0,0,.1-.1.2-.2,0,0,.2,0,.3,0s.3,0,.4,0c0,0,.2,0,.2.2,0,0,0,.2,0,.3v.8s0,0,0,0c0,0,0,0,0,0h0v.3s0,0,0,0c0,0,0,0-.1,0s-.1,0-.1,0c0,0,0,0-.1,0,0,0,0,0,0-.1h0s0,0-.1.1c0,0-.1,0-.2,0,0,0-.1,0-.2,0M175.4,172.9c0,0,.1,0,.2,0,0,0,0,0,.1,0,0,0,0,0,0-.1,0,0,0,0,0-.2h0c-.1,0-.2,0-.3,0,0,0-.2,0-.2,0,0,0,0,0,0,.2s0,0,0,0c0,0,0,0,0,0,0,0,0,0,.1,0"/>
        <path class="cls-3" d="M176.7,173.2v-1.6h.3v.2h0s0,0,.1-.1c0,0,0,0,.2,0,0,0,.1,0,.2,0s.2,0,.3,0c0,0,.1.1.2.2h0s0,0,.1-.1c0,0,.1,0,.2,0,0,0,.1,0,.2,0s.2,0,.3,0c0,0,.1,0,.2.2,0,0,0,.2,0,.3v1.1h-.4v-1c0,0,0-.1,0-.1,0,0,0,0,0,0,0,0,0,0,0,0,0,0,0,0-.1,0,0,0-.1,0-.2,0,0,0,0,0-.1.1s0,.1,0,.2v.9h-.4v-1c0,0,0-.1,0-.1,0,0,0,0,0,0,0,0,0,0,0,0,0,0,0,0-.1,0,0,0-.1,0-.2,0,0,0,0,0-.1.1s0,.1,0,.2v.9h-.4Z"/>
        <path class="cls-3" d="M179.8,173.2s0,0-.2,0c0,0-.1,0-.2,0,0,0,0,0-.1-.1,0,0,0-.1,0-.2s0-.2,0-.3.1-.1.2-.2c0,0,.2,0,.3,0,.1,0,.3,0,.4,0h0c0-.2,0-.2,0-.3,0,0,0,0,0,0,0,0,0,0-.2,0s-.1,0-.2,0c0,0,0,0,0,0,0,0,0,0,0,0h0s-.4,0-.4,0c0,0,0,0,0,0h0c0-.1,0-.2,0-.3,0,0,.1-.1.2-.2,0,0,.2,0,.3,0s.3,0,.4,0c0,0,.2,0,.2.2,0,0,0,.2,0,.3v.8s0,0,0,0c0,0,0,0,0,0h0v.3s0,0,0,0c0,0,0,0-.1,0s-.1,0-.1,0c0,0,0,0-.1,0,0,0,0,0,0-.1h0s0,0-.1.1c0,0-.1,0-.2,0,0,0-.1,0-.2,0M179.9,172.9c0,0,.1,0,.2,0,0,0,0,0,.1,0,0,0,0,0,0-.1,0,0,0,0,0-.2h0c-.1,0-.2,0-.3,0,0,0-.2,0-.2,0,0,0,0,0,0,.2s0,0,0,0c0,0,0,0,0,0,0,0,0,0,.1,0"/>
        <path class="cls-3" d="M181.1,173.2v-1.6h.3v.3h0c0,0,0,0,0-.1,0,0,0,0,.1-.1,0,0,.1,0,.2,0s0,0,0,0c0,0,0,0,0,0v.4h-.1c0,0-.1,0-.2,0,0,0,0,0-.1,0,0,0,0,0,0,.1,0,0,0,.1,0,.2v.8h-.4Z"/>
        <path class="cls-3" d="M182.7,173.2s0,0-.2,0c0,0-.1,0-.2,0,0,0,0,0-.1-.1,0,0,0-.1,0-.2s0-.2,0-.3.1-.1.2-.2c0,0,.2,0,.3,0,.1,0,.3,0,.4,0h0c0-.2,0-.2,0-.3,0,0,0,0,0,0,0,0,0,0-.2,0s-.1,0-.2,0c0,0,0,0,0,0,0,0,0,0,0,0h0s-.4,0-.4,0c0,0,0,0,0,0h0c0-.1,0-.2,0-.3,0,0,.1-.1.2-.2,0,0,.2,0,.3,0s.3,0,.4,0c0,0,.2,0,.2.2,0,0,0,.2,0,.3v.8s0,0,0,0c0,0,0,0,0,0h0v.3s0,0,0,0c0,0,0,0-.1,0s-.1,0-.1,0c0,0,0,0-.1,0,0,0,0,0,0-.1h0s0,0-.1.1c0,0-.1,0-.2,0,0,0-.1,0-.2,0M182.8,172.9c0,0,.1,0,.2,0,0,0,0,0,.1,0,0,0,0,0,0-.1,0,0,0,0,0-.2h0c-.1,0-.2,0-.3,0,0,0-.2,0-.2,0,0,0,0,0,0,.2s0,0,0,0c0,0,0,0,0,0,0,0,0,0,.1,0"/>
        <path class="cls-3" d="M184.8,173.2v-2.1h1.1c.2,0,.3,0,.4,0,.1,0,.2.1.2.2,0,0,0,.2,0,.3s0,.3,0,.4c0,.1-.2.2-.3.2l.4.9h-.4l-.4-.8h-.7v.8h-.4ZM185.2,172h.7c.1,0,.2,0,.2,0,0,0,0-.1,0-.2s0-.1,0-.2c0,0,0,0-.1-.1,0,0-.1,0-.2,0h-.7v.6Z"/>
        <path class="cls-3" d="M187.4,173.2s0,0-.2,0c0,0-.1,0-.2,0,0,0,0,0-.1-.1,0,0,0-.1,0-.2s0-.2,0-.3.1-.1.2-.2c0,0,.2,0,.3,0,.1,0,.3,0,.4,0h0c0-.2,0-.2,0-.3,0,0,0,0,0,0,0,0,0,0-.2,0s-.1,0-.2,0c0,0,0,0,0,0,0,0,0,0,0,0h0s-.4,0-.4,0c0,0,0,0,0,0h0c0-.1,0-.2,0-.3,0,0,.1-.1.2-.2,0,0,.2,0,.3,0s.3,0,.4,0c0,0,.2,0,.2.2,0,0,0,.2,0,.3v.8s0,0,0,0c0,0,0,0,0,0h0v.3s0,0,0,0c0,0,0,0-.1,0s-.1,0-.1,0c0,0,0,0-.1,0,0,0,0,0,0-.1h0s0,0-.1.1c0,0-.1,0-.2,0,0,0-.1,0-.2,0M187.5,172.9c0,0,.1,0,.2,0,0,0,0,0,.1,0,0,0,0,0,0-.1,0,0,0,0,0-.2h0c-.1,0-.2,0-.3,0,0,0-.2,0-.2,0,0,0,0,0,0,.2s0,0,0,0c0,0,0,0,0,0,0,0,0,0,.1,0"/>
        <path class="cls-3" d="M188.7,173.2v-1.6h.3v.2h0s0,0,.1-.1c0,0,0,0,.2,0,0,0,.1,0,.2,0s.2,0,.3,0c0,0,.1.1.2.2h0s0,0,.1-.1c0,0,.1,0,.2,0,0,0,.1,0,.2,0s.2,0,.3,0c0,0,.1,0,.2.2,0,0,0,.2,0,.3v1.1h-.4v-1c0,0,0-.1,0-.1,0,0,0,0,0,0,0,0,0,0,0,0,0,0,0,0-.1,0,0,0-.1,0-.2,0,0,0,0,0-.1.1s0,.1,0,.2v.9h-.4v-1c0,0,0-.1,0-.1,0,0,0,0,0,0,0,0,0,0,0,0,0,0,0,0-.1,0,0,0-.1,0-.2,0,0,0,0,0-.1.1s0,.1,0,.2v.9h-.4Z"/>
        <path class="cls-3" d="M191.5,173.2v-1.6h.3v.2h0s0,0,.1-.1c0,0,0,0,.2,0,0,0,.1,0,.2,0s.2,0,.3,0c0,0,.1.1.2.2h0s0,0,.1-.1c0,0,.1,0,.2,0,0,0,.1,0,.2,0s.2,0,.3,0c0,0,.1,0,.2.2,0,0,0,.2,0,.3v1.1h-.4v-1c0,0,0-.1,0-.1,0,0,0,0,0,0,0,0,0,0,0,0,0,0,0,0-.1,0,0,0-.1,0-.2,0,0,0,0,0-.1.1s0,.1,0,.2v.9h-.4v-1c0,0,0-.1,0-.1,0,0,0,0,0,0,0,0,0,0,0,0,0,0,0,0-.1,0,0,0-.1,0-.2,0,0,0,0,0-.1.1s0,.1,0,.2v.9h-.4Z"/>
        <path class="cls-3" d="M194.8,173.2c-.1,0-.2,0-.3,0,0,0-.2,0-.2-.1,0,0-.1,0-.1-.2,0,0,0-.1,0-.2s0,0,0,0c0,0,0,0,0,0h.4c0,0,0,.1,0,.2,0,0,0,0,.1,0s.1,0,.2,0,.1,0,.2,0c0,0,0,0,.1,0,0,0,0,0,0,0s0,0,0-.1,0,0-.2,0c0,0-.1,0-.2,0,0,0-.1,0-.2,0,0,0-.1,0-.2,0s0,0-.1-.1c0,0,0-.1,0-.2s0-.1,0-.2c0,0,0-.1.1-.1,0,0,.1,0,.2,0,0,0,.2,0,.3,0s.2,0,.3,0c0,0,.1,0,.2,0,0,0,.1,0,.1.1,0,0,0,.1,0,.2s0,0,0,0c0,0,0,0,0,0h-.4c0,0,0,0,0-.1,0,0,0,0-.1,0,0,0,0,0-.2,0s0,0-.1,0c0,0,0,0,0,0,0,0,0,0,0,0,0,0,0,0,0,0,0,0,0,0,0,0,0,0,0,0,.1,0,0,0,.1,0,.2,0,0,0,.1,0,.2,0,0,0,.1,0,.2,0,0,0,.1,0,.2.1,0,0,0,.1,0,.2s0,.2,0,.2c0,0,0,.1-.2.2,0,0-.1,0-.2,0,0,0-.2,0-.3,0"/>
        <path class="cls-3" d="M196.1,173.7c0,0-.1,0-.2,0,0,0,0,0,0,0v-.3h.2s0,0,.1,0c0,0,0,0,.1,0,0,0,0,0,0-.1l-.6-1.6h.4l.3.8s0,0,0,.1c0,0,0,.1,0,.2,0,0,0,.1,0,.2h0s0,0,0-.1,0,0,0-.1c0,0,0,0,0-.1,0,0,0,0,0-.1l.2-.8h.4l-.5,1.5c0,0,0,.2-.1.2s0,.1-.1.2c0,0-.1.1-.2.1,0,0-.1,0-.2,0"/>
        <path class="cls-3" d="M199.1,173.2c-.1,0-.2,0-.3,0-.1,0-.2,0-.3-.1,0,0-.1-.1-.2-.2,0,0,0-.2,0-.3s0,0,0,0c0,0,0,0,0,0h.4s0,0,0,0c0,0,0,0,0,0,0,0,0,.1,0,.2,0,0,0,0,.2.1,0,0,.2,0,.3,0s.1,0,.2,0c0,0,0,0,.1,0,0,0,0,0,0,0,0,0,0,0,0,0,0,0,0,0,0,0,0,0,0-.1,0-.1,0,0,0,0-.1,0,0,0-.1,0-.2,0,0,0-.2,0-.2,0,0,0-.2,0-.2,0,0,0-.2,0-.2-.1,0,0-.1-.1-.1-.2,0,0,0-.2,0-.2s0-.2,0-.3c0,0,.1-.1.2-.2,0,0,.2,0,.3-.1.1,0,.2,0,.3,0s.2,0,.3,0c0,0,.2,0,.3.1,0,0,.1.1.2.2,0,0,0,.2,0,.3h0s-.4,0-.4,0h0c0,0,0-.1,0-.2s0,0-.1,0c0,0-.1,0-.2,0s-.2,0-.2,0c0,0-.1,0-.2,0,0,0,0,0,0,.1s0,0,0,.1c0,0,0,0,.1,0,0,0,.1,0,.2,0,0,0,.2,0,.2,0,0,0,.2,0,.2,0,0,0,.1,0,.2.1,0,0,.1.1.1.2s0,.1,0,.2c0,.2,0,.3-.1.4s-.2.2-.3.2c-.1,0-.3,0-.5,0"/>
        <path class="cls-3" d="M200.8,173.2s0,0-.2,0c0,0-.1,0-.2,0,0,0,0,0-.1-.1,0,0,0-.1,0-.2s0-.2,0-.3c0,0,.1-.1.2-.2,0,0,.2,0,.3,0,.1,0,.3,0,.4,0h0c0-.2,0-.2,0-.3,0,0,0,0,0,0,0,0,0,0-.2,0s-.1,0-.2,0c0,0,0,0,0,0,0,0,0,0,0,0h0s-.4,0-.4,0c0,0,0,0,0,0h0c0-.1,0-.2,0-.3,0,0,.1-.1.2-.2,0,0,.2,0,.3,0s.3,0,.4,0c0,0,.2,0,.2.2,0,0,0,.2,0,.3v.8s0,0,0,0c0,0,0,0,0,0h0v.3s0,0,0,0c0,0,0,0-.1,0s-.1,0-.1,0c0,0,0,0-.1,0,0,0,0,0,0-.1h0s0,0-.1.1c0,0-.1,0-.2,0,0,0-.1,0-.2,0M200.9,172.9c0,0,.1,0,.2,0,0,0,0,0,.1,0,0,0,0,0,0-.1,0,0,0,0,0-.2h0c-.1,0-.2,0-.3,0,0,0-.2,0-.2,0,0,0,0,0,0,.2s0,0,0,0c0,0,0,0,0,0,0,0,0,0,.1,0M200.8,171.3l.2-.4h.4s-.3.4-.3.4h-.3Z"/>
        <path class="cls-3" d="M202.2,173.2v-1.6h.3v.2h0s0,0,.1-.1c0,0,.1,0,.2,0,0,0,.1,0,.2,0s.2,0,.3,0c0,0,.1,0,.2.2s0,.2,0,.3v1.1h-.4v-1c0,0,0-.1,0-.1,0,0,0,0,0,0,0,0,0,0,0,0,0,0,0,0-.1,0,0,0-.1,0-.2,0,0,0,0,0-.1.1s0,.1,0,.2v.9h-.4Z"/>
        <path class="cls-3" d="M204.7,173.2c-.2,0-.3,0-.4,0-.1,0-.2-.2-.3-.3,0-.1,0-.3,0-.5s0-.4,0-.5c0-.1.1-.2.3-.3.1,0,.3,0,.4,0s.2,0,.3,0c0,0,.2,0,.2.1,0,0,.1.1.1.2,0,0,0,.2,0,.3h-.4c0,0,0-.1,0-.2,0,0,0,0-.1-.1,0,0-.1,0-.2,0s-.2,0-.2,0c0,0,0,0-.1.2,0,0,0,.2,0,.3h0c0,.2,0,.3,0,.3s0,.1.1.2c0,0,.1,0,.2,0s.1,0,.2,0c0,0,0,0,.1-.1,0,0,0-.1,0-.2h.4c0,0,0,.2,0,.3,0,0,0,.1-.1.2,0,0-.1,0-.2.1,0,0-.2,0-.3,0"/>
        <path class="cls-3" d="M205.8,173.2v-2.2h.4v.8h0s0,0,.1-.1c0,0,.1,0,.2,0,0,0,.1,0,.2,0s.2,0,.3,0c0,0,.1,0,.2.2s0,.2,0,.3v1.1h-.4v-1c0,0,0-.1,0-.1,0,0,0,0,0,0,0,0,0,0,0,0,0,0,0,0-.1,0,0,0-.1,0-.2,0,0,0,0,0-.1.1s0,.1,0,.2v.9h-.4Z"/>
        <path class="cls-3" d="M208.3,173.2c-.2,0-.3,0-.4,0-.1,0-.2-.2-.3-.3,0-.1,0-.3,0-.5s0-.4,0-.5c0-.1.1-.2.3-.3.1,0,.3,0,.4,0s.3,0,.4,0c.1,0,.2.1.2.3,0,.1,0,.3,0,.5h0c0,.1-1.1.1-1.1.1,0,0,0,.2,0,.3,0,0,0,.1.1.2,0,0,.1,0,.2,0s0,0,.1,0,0,0,.1,0,0,0,0,0c0,0,0,0,0-.1h.4c0,.1,0,.2,0,.3,0,0,0,.1-.2.2,0,0-.1,0-.2.1s-.2,0-.3,0M207.9,172.2h.7c0,0,0-.1,0-.2,0,0,0,0,0-.1,0,0,0,0,0,0,0,0,0,0-.1,0,0,0-.1,0-.2,0,0,0,0,0-.1.1,0,0,0,.1,0,.2"/>
        <polygon class="cls-3" points="209.3 173.2 209.3 173 210.1 171.8 209.3 171.8 209.3 171.5 210.6 171.5 210.6 171.7 209.8 172.8 210.7 172.8 210.7 173.2 209.3 173.2"/>
        <path class="cls-3" d="M171,169.1h-1.2c-.5,0-1-.4-1-1v-1.2c0-.5.4-1,1-1h1.2c.5,0,1,.4,1,1v1.2c0,.5-.4,1-1,1M169.7,166.1c-.4,0-.7.3-.7.7v1.2c0,.4.3.7.7.7h1.2c.4,0,.7-.3.7-.7v-1.2c0-.4-.3-.7-.7-.7h-1.2Z"/>
        <path class="cls-3" d="M170.4,168.3c-.4,0-.8-.4-.8-.8s.4-.8.8-.8.8.4.8.8-.4.8-.8.8M170.4,166.9c-.3,0-.6.3-.6.6s.3.6.6.6.6-.3.6-.6-.3-.6-.6-.6"/>
        <path class="cls-3" d="M171.5,166.6c0,.1,0,.2-.2.2s-.2,0-.2-.2,0-.2.2-.2.2,0,.2.2"/>
        <path class="cls-3" d="M170.5,170.4c-1,0-1.7.8-1.7,1.7s.8,1.7,1.7,1.7,1.7-.8,1.7-1.7-.8-1.7-1.7-1.7M171,171.4h-.2c0,0,0,0,0,.1v.2h.3v.4h-.3v1.1h-.4v-1.1h-.2v-.4h.2v-.3c0-.3.1-.4.5-.4h.3v.4Z"/>
        <path class="cls-2" d="M75.1,171.3c-.7,0-1.3-.1-1.8-.3-.5-.2-.9-.6-1.2-1.1-.3-.5-.4-1.1-.4-1.9s0-1.2.3-1.6c.2-.4.5-.8.8-1.1.3-.3.7-.5,1.2-.6.4-.1.9-.2,1.4-.2s1,0,1.4.2c.4.1.8.3,1.1.5.3.2.6.5.7.9.2.4.3.8.3,1.4s0,.7-.1.9c0,.3-.2.5-.3.7-.1.2-.3.3-.4.4-.2.1-.3.2-.5.2-.2,0-.3,0-.5,0-.2,0-.4,0-.5-.1-.1,0-.2-.1-.3-.2,0,0,0-.1-.1-.2h0c0,0-.2.2-.3.3-.1,0-.2.1-.4.2-.1,0-.3,0-.5,0s-.2,0-.4,0c-.1,0-.3,0-.4-.1-.1,0-.2-.2-.3-.3,0-.1-.1-.3-.1-.5s0-.5.2-.6c.1-.2.3-.3.5-.4.2,0,.5-.2.7-.2.3,0,.6,0,.9,0v-.3c0-.1,0-.2,0-.3,0,0,0-.2-.2-.2,0,0-.2,0-.4,0s-.3,0-.4,0c0,0-.2,0-.2.2,0,0,0,.1,0,.2h0c0,.1-.8.1-.8.1,0,0,0,0,0,0h0c0-.3,0-.5.2-.6.1-.2.3-.3.5-.4.2,0,.5-.1.8-.1s.6,0,.8.1c.2,0,.4.2.5.4.1.2.2.4.2.6v1.8c0,.1,0,.2,0,.3,0,0,.1,0,.2,0,.2,0,.3,0,.5-.2.2-.1.3-.3.4-.5.1-.2.2-.6.2-1s-.1-1-.4-1.4c-.2-.4-.6-.6-1-.8-.4-.2-.9-.2-1.5-.2s-1.2.1-1.6.3c-.5.2-.8.5-1,.9-.2.4-.4,1-.4,1.6s.2,1.6.7,2c.4.4,1.1.7,2.1.7s.3,0,.5,0c.2,0,.4,0,.6,0,.2,0,.3,0,.4-.1v.6c-.1,0-.3,0-.5.1-.2,0-.4,0-.6,0-.2,0-.3,0-.5,0M75.2,169.2c.2,0,.3,0,.4,0,.1,0,.2-.1.3-.2,0,0,.1-.2.2-.3,0-.1,0-.2,0-.4h0c-.3-.1-.5-.1-.7,0-.2,0-.4,0-.5.2-.1,0-.2.2-.2.4s0,.2,0,.2c0,0,0,.1.2.2,0,0,.2,0,.3,0"/>
        <path class="cls-2" d="M81,170.2c-.3,0-.5,0-.6-.2-.1-.1-.2-.2-.3-.4,0-.2,0-.3,0-.5v-2.4h-.5v-.8h.5l.2-1.2h.8v1.2h.7v.8h-.7v2.3c0,.1,0,.2,0,.3,0,0,.1,0,.3,0h.4v.7c0,0-.1,0-.2,0,0,0-.2,0-.2,0,0,0-.2,0-.2,0"/>
        <path class="cls-2" d="M83.6,170.2c-.1,0-.2,0-.4,0s-.3,0-.4-.2c-.1,0-.3-.2-.3-.3,0-.2-.1-.4-.1-.6s0-.5.2-.7c.1-.2.3-.3.5-.4.2-.1.5-.2.8-.2s.7,0,1,0v-.3c0-.1,0-.2,0-.3,0,0-.1-.2-.2-.2s-.2,0-.4,0-.3,0-.5,0c-.1,0-.2.1-.2.2s0,.1,0,.2h0c0,.1-.9.1-.9.1,0,0,0,0,0,0h0c0-.3,0-.5.2-.7.1-.2.3-.3.6-.4.3,0,.5-.1.9-.1s.7,0,.9.2c.2.1.4.3.5.4.1.2.2.4.2.7v1.9c0,0,0,.2,0,.2,0,0,.1,0,.2,0h.3v.7c0,0-.1,0-.2,0-.1,0-.2,0-.4,0s-.3,0-.4,0c-.1,0-.2-.1-.3-.2,0,0-.1-.2-.2-.3h0c0,.1-.2.2-.3.3-.1,0-.3.2-.4.2-.2,0-.4,0-.6,0M83.9,169.4c.2,0,.3,0,.4,0,.1,0,.2-.1.3-.2s.1-.2.2-.3c0-.1,0-.3,0-.4v-.2c-.3,0-.6,0-.8,0-.2,0-.4.1-.6.2-.1,0-.2.2-.2.4s0,.2,0,.2c0,0,.1.1.2.2,0,0,.2,0,.3,0"/>
        <path class="cls-2" d="M87.1,170.1v-4.1h.8v.6h.1c0-.1.2-.2.3-.3.1,0,.2-.2.4-.2.1,0,.3,0,.5,0s.5,0,.6.1c.2,0,.3.3.4.5h0c0-.1.2-.2.3-.3.1,0,.3-.2.4-.2.2,0,.3,0,.5,0s.5,0,.7.1c.2,0,.3.2.4.4.1.2.2.5.2.8v2.8h-1v-2.6c0-.1,0-.3,0-.4,0,0,0-.2-.1-.2s-.1,0-.2-.1c0,0-.2,0-.3,0-.2,0-.3,0-.4.1-.1,0-.2.2-.3.3,0,.1-.1.3-.1.5v2.4h-1v-2.6c0-.1,0-.3,0-.4,0,0,0-.2-.1-.2s-.1,0-.2-.1c0,0-.2,0-.3,0-.2,0-.3,0-.4.1-.1,0-.2.2-.3.3,0,.1-.1.3-.1.5v2.4h-1Z"/>
        <path class="cls-2" d="M95,170.2c-.1,0-.2,0-.4,0s-.3,0-.4-.2c-.1,0-.3-.2-.3-.3,0-.2-.1-.4-.1-.6s0-.5.2-.7c.1-.2.3-.3.5-.4.2-.1.5-.2.8-.2s.7,0,1,0v-.3c0-.1,0-.2,0-.3,0,0-.1-.2-.2-.2s-.2,0-.4,0-.3,0-.5,0c-.1,0-.2.1-.2.2s0,.1,0,.2h0c0,.1-.9.1-.9.1,0,0,0,0,0,0h0c0-.3,0-.5.2-.7.1-.2.3-.3.6-.4.3,0,.5-.1.9-.1s.7,0,.9.2c.2.1.4.3.5.4.1.2.2.4.2.7v1.9c0,0,0,.2,0,.2,0,0,.1,0,.2,0h.3v.7c0,0-.1,0-.2,0-.1,0-.2,0-.4,0s-.3,0-.4,0c-.1,0-.2-.1-.3-.2,0,0-.1-.2-.2-.3h0c0,.1-.2.2-.3.3-.1,0-.3.2-.4.2-.2,0-.4,0-.6,0M95.3,169.4c.2,0,.3,0,.4,0,.1,0,.2-.1.3-.2s.1-.2.2-.3c0-.1,0-.3,0-.4v-.2c-.3,0-.6,0-.8,0-.2,0-.4.1-.6.2-.1,0-.2.2-.2.4s0,.2,0,.2c0,0,.1.1.2.2,0,0,.2,0,.3,0"/>
        <path class="cls-2" d="M98.5,170.1v-4.1h.8v.7h.1c0-.1.1-.3.2-.4,0-.1.2-.2.3-.3.1,0,.3-.1.4-.1s.2,0,.2,0c0,0,.1,0,.2,0v.9h-.3c-.2,0-.3,0-.4,0-.1,0-.2.1-.3.2s-.2.2-.2.4c0,.1,0,.3,0,.5v2.1h-1Z"/>
        <path class="cls-2" d="M102.5,170.2c-.1,0-.2,0-.4,0s-.3,0-.4-.2c-.1,0-.3-.2-.3-.3,0-.2-.1-.4-.1-.6s0-.5.2-.7c.1-.2.3-.3.5-.4.2-.1.5-.2.8-.2s.7,0,1,0v-.3c0-.1,0-.2,0-.3,0,0-.1-.2-.2-.2s-.2,0-.4,0-.3,0-.5,0c-.1,0-.2.1-.2.2s0,.1,0,.2h0c0,.1-.9.1-.9.1,0,0,0,0,0,0h0c0-.3,0-.5.2-.7.1-.2.3-.3.6-.4.3,0,.5-.1.9-.1s.7,0,.9.2c.2.1.4.3.5.4.1.2.2.4.2.7v1.9c0,0,0,.2,0,.2,0,0,.1,0,.2,0h.3v.7c0,0-.1,0-.2,0-.1,0-.2,0-.4,0s-.3,0-.4,0c-.1,0-.2-.1-.3-.2,0,0-.1-.2-.2-.3h0c0,.1-.2.2-.3.3-.1,0-.3.2-.4.2-.2,0-.4,0-.6,0M102.8,169.4c.2,0,.3,0,.4,0,.1,0,.2-.1.3-.2s.1-.2.2-.3c0-.1,0-.3,0-.4v-.2c-.3,0-.6,0-.8,0-.2,0-.4.1-.6.2-.1,0-.2.2-.2.4s0,.2,0,.2c0,0,.1.1.2.2,0,0,.2,0,.3,0"/>
        <rect class="cls-2" x="106.1" y="169.1" width="1" height="1"/>
        <path class="cls-2" d="M108.5,170.1v-4.1h.8v.7h.1c0-.1.1-.3.2-.4,0-.1.2-.2.3-.3.1,0,.3-.1.4-.1s.2,0,.2,0c0,0,.1,0,.2,0v.9h-.3c-.2,0-.3,0-.4,0-.1,0-.2.1-.3.2s-.2.2-.2.4c0,.1,0,.3,0,.5v2.1h-1Z"/>
        <path class="cls-2" d="M112.4,170.2c-.1,0-.2,0-.4,0s-.3,0-.4-.2c-.1,0-.3-.2-.3-.3,0-.2-.1-.4-.1-.6s0-.5.2-.7c.1-.2.3-.3.5-.4.2-.1.5-.2.8-.2s.7,0,1,0v-.3c0-.1,0-.2,0-.3,0,0-.1-.2-.2-.2s-.2,0-.4,0-.3,0-.5,0c-.1,0-.2.1-.2.2s0,.1,0,.2h0c0,.1-.9.1-.9.1,0,0,0,0,0,0h0c0-.3,0-.5.2-.7.1-.2.3-.3.6-.4.3,0,.5-.1.9-.1s.7,0,.9.2c.2.1.4.3.5.4.1.2.2.4.2.7v1.9c0,0,0,.2,0,.2,0,0,.1,0,.2,0h.3v.7c0,0-.1,0-.2,0-.1,0-.2,0-.4,0s-.3,0-.4,0c-.1,0-.2-.1-.3-.2,0,0-.1-.2-.2-.3h0c0,.1-.2.2-.3.3-.1,0-.3.2-.4.2-.2,0-.4,0-.6,0M112.7,169.4c.2,0,.3,0,.4,0,.1,0,.2-.1.3-.2s.1-.2.2-.3c0-.1,0-.3,0-.4v-.2c-.3,0-.6,0-.8,0-.2,0-.4.1-.6.2-.1,0-.2.2-.2.4s0,.2,0,.2c0,0,.1.1.2.2,0,0,.2,0,.3,0"/>
        <path class="cls-2" d="M115.9,170.1v-4.1h.8v.6h.1c0-.1.2-.2.3-.3.1,0,.2-.2.4-.2.1,0,.3,0,.5,0s.5,0,.6.1c.2,0,.3.3.4.5h0c0-.1.2-.2.3-.3.1,0,.3-.2.4-.2.2,0,.3,0,.5,0s.5,0,.7.1c.2,0,.3.2.4.4.1.2.2.5.2.8v2.8h-1v-2.6c0-.1,0-.3,0-.4,0,0,0-.2-.1-.2s-.1,0-.2-.1c0,0-.2,0-.3,0-.2,0-.3,0-.4.1-.1,0-.2.2-.3.3,0,.1-.1.3-.1.5v2.4h-1v-2.6c0-.1,0-.3,0-.4,0,0,0-.2-.1-.2s-.1,0-.2-.1c0,0-.2,0-.3,0-.2,0-.3,0-.4.1-.1,0-.2.2-.3.3,0,.1-.1.3-.1.5v2.4h-1Z"/>
        <path class="cls-2" d="M122.8,170.1v-4.1h.8v.6h.1c0-.1.2-.2.3-.3.1,0,.2-.2.4-.2.1,0,.3,0,.5,0s.5,0,.6.1c.2,0,.3.3.4.5h0c0-.1.2-.2.3-.3.1,0,.3-.2.4-.2.2,0,.3,0,.5,0s.5,0,.7.1c.2,0,.3.2.4.4.1.2.2.5.2.8v2.8h-1v-2.6c0-.1,0-.3,0-.4,0,0,0-.2-.1-.2s-.1,0-.2-.1c0,0-.2,0-.3,0-.2,0-.3,0-.4.1-.1,0-.2.2-.3.3,0,.1-.1.3-.1.5v2.4h-1v-2.6c0-.1,0-.3,0-.4,0,0,0-.2-.1-.2s-.1,0-.2-.1c0,0-.2,0-.3,0-.2,0-.3,0-.4.1-.1,0-.2.2-.3.3,0,.1-.1.3-.1.5v2.4h-1Z"/>
        <path class="cls-2" d="M131.4,170.2c-.3,0-.6,0-.8,0-.2,0-.4-.2-.6-.3-.2-.1-.3-.2-.3-.4,0-.2-.1-.3-.1-.5s0,0,0,0c0,0,0,0,0,0h.9c0,.2,0,.3.1.4,0,0,.2.1.3.2.1,0,.3,0,.4,0s.3,0,.4,0,.2,0,.3-.1c0,0,.1-.2.1-.3s0-.2-.2-.3c-.1,0-.2-.1-.4-.2-.2,0-.4,0-.5-.1-.2,0-.3,0-.5-.2-.2,0-.3-.1-.5-.2-.1,0-.3-.2-.3-.3,0-.1-.1-.3-.1-.5s0-.4.1-.5c0-.2.2-.3.4-.4.2-.1.3-.2.6-.2.2,0,.4,0,.7,0s.5,0,.7,0c.2,0,.4.1.5.2.2,0,.3.2.3.4,0,.1.1.3.1.5s0,0,0,.1c0,0,0,0,0,0h-.9c0-.2,0-.2,0-.3,0,0-.1-.1-.3-.2-.1,0-.3,0-.4,0s-.2,0-.3,0c0,0-.2,0-.2,0,0,0-.1,0-.1.1,0,0,0,0,0,.2,0,0,0,.2.1.2,0,0,.2.1.3.1.1,0,.3,0,.4.1.2,0,.4.1.6.2.2,0,.4.1.6.2.2,0,.3.2.4.4.1.2.2.4.2.6s0,.4-.1.6c0,.2-.2.3-.4.4-.2.1-.4.2-.6.2-.2,0-.5,0-.7,0"/>
        <path class="cls-2" d="M134.7,171.5c-.2,0-.4,0-.5,0-.1,0-.2,0-.2,0v-.7h.4c.1,0,.2,0,.3,0,.1,0,.2-.1.3-.2,0,0,.2-.2.2-.3l-1.6-4.1h1l.8,2c0,0,0,.2.1.3,0,.1,0,.3.1.4,0,.1,0,.3.1.4h0c0,0,0-.2,0-.3s0-.2,0-.3c0-.1,0-.2,0-.3,0,0,0-.2,0-.3l.6-2h1l-1.4,3.9c0,.2-.2.4-.3.6,0,.2-.2.4-.3.5-.1.2-.3.3-.5.4-.2,0-.4.1-.6.1"/>
        <path class="cls-2" d="M140.1,170.2c-.3,0-.6,0-.8,0-.2,0-.4-.2-.6-.3-.2-.1-.3-.2-.3-.4,0-.2-.1-.3-.1-.5s0,0,0,0c0,0,0,0,0,0h.9c0,.2,0,.3.1.4,0,0,.2.1.3.2.1,0,.3,0,.4,0s.3,0,.4,0,.2,0,.3-.1c0,0,.1-.2.1-.3s0-.2-.2-.3c-.1,0-.2-.1-.4-.2-.2,0-.4,0-.5-.1-.2,0-.3,0-.5-.2-.2,0-.3-.1-.5-.2-.1,0-.3-.2-.3-.3,0-.1-.1-.3-.1-.5s0-.4.1-.5c0-.2.2-.3.4-.4.2-.1.3-.2.6-.2.2,0,.4,0,.7,0s.5,0,.7,0c.2,0,.4.1.5.2.2,0,.3.2.3.4,0,.1.1.3.1.5s0,0,0,.1c0,0,0,0,0,0h-.9c0-.2,0-.2,0-.3,0,0-.1-.1-.3-.2-.1,0-.3,0-.4,0s-.2,0-.3,0c0,0-.2,0-.2,0,0,0-.1,0-.1.1,0,0,0,0,0,.2,0,0,0,.2.1.2,0,0,.2.1.3.1.1,0,.3,0,.4.1.2,0,.4.1.6.2.2,0,.4.1.6.2.2,0,.3.2.4.4.1.2.2.4.2.6s0,.4-.1.6c0,.2-.2.3-.4.4-.2.1-.4.2-.6.2-.2,0-.5,0-.7,0"/>
        <path class="cls-2" d="M66.4,172.1h-3.2c-1.4,0-2.5-1.1-2.5-2.5v-3.2c0-1.4,1.1-2.5,2.5-2.5h3.2c1.4,0,2.5,1.1,2.5,2.5v3.2c0,1.4-1.1,2.5-2.5,2.5M63.2,164.5c-1,0-1.9.8-1.9,1.9v3.2c0,1,.8,1.9,1.9,1.9h3.2c1,0,1.9-.8,1.9-1.9v-3.2c0-1-.8-1.9-1.9-1.9h-3.2Z"/>
        <path class="cls-2" d="M64.8,170.1c-1.1,0-2.1-.9-2.1-2.1s.9-2.1,2.1-2.1,2.1.9,2.1,2.1-.9,2.1-2.1,2.1M64.8,166.6c-.8,0-1.4.6-1.4,1.4s.6,1.4,1.4,1.4,1.4-.6,1.4-1.4-.6-1.4-1.4-1.4"/>
        <path class="cls-2" d="M67.6,165.7c0,.3-.2.5-.5.5s-.5-.2-.5-.5.2-.5.5-.5.5.2.5.5"/>
        <polygon class="cls-2" points="72.4 180.9 72.4 176.9 70.9 176.9 70.9 176.1 74.9 176.1 74.9 176.9 73.3 176.9 73.3 180.9 72.4 180.9"/>
        <path class="cls-2" d="M76,181c-.1,0-.2,0-.4,0-.1,0-.3,0-.4-.1-.1,0-.2-.2-.3-.3,0-.1-.1-.3-.1-.5s0-.5.2-.6.3-.3.5-.4c.2,0,.4-.2.7-.2.3,0,.6,0,.9,0v-.3c0-.1,0-.2,0-.3,0,0,0-.2-.2-.2,0,0-.2,0-.4,0s-.3,0-.4,0c0,0-.2,0-.2.2,0,0,0,.1,0,.2h0c0,0-.8,0-.8,0,0,0,0,0,0,0h0c0-.3,0-.5.2-.6.1-.2.3-.3.5-.4.2,0,.5-.1.8-.1s.6,0,.8.1c.2,0,.4.2.5.4.1.2.2.4.2.6v1.7c0,0,0,.2,0,.2,0,0,.1,0,.2,0h.2v.6s-.1,0-.2,0c0,0-.2,0-.3,0s-.2,0-.3,0-.2,0-.2-.2c0,0-.1-.2-.1-.3h0c0,0-.2.2-.3.3-.1,0-.2.1-.4.2-.1,0-.3,0-.5,0M76.3,180.3c.1,0,.3,0,.4,0,.1,0,.2-.1.3-.2,0,0,.1-.2.2-.3,0-.1,0-.2,0-.4v-.2c-.3,0-.5,0-.7,0-.2,0-.4,0-.5.2-.1,0-.2.2-.2.4s0,.2,0,.2c0,0,.1.1.2.1,0,0,.2,0,.3,0"/>
        <path class="cls-2" d="M79.1,180.9v-3.7h.7v.5h.1c0-.1.2-.2.3-.3.1,0,.2-.2.4-.2.1,0,.3,0,.4,0s.4,0,.6.1c.2,0,.3.2.4.4h0c0-.1.2-.2.3-.3.1,0,.2-.2.4-.2.1,0,.3,0,.5,0s.4,0,.6.1c.2,0,.3.2.4.4,0,.2.1.4.1.7v2.5h-.9v-2.4c0-.1,0-.2,0-.3,0,0,0-.2-.1-.2,0,0-.1,0-.2-.1,0,0-.2,0-.2,0-.1,0-.3,0-.4.1-.1,0-.2.2-.3.3,0,.1,0,.3,0,.5v2.1h-.9v-2.4c0-.1,0-.2,0-.3,0,0,0-.2-.1-.2,0,0-.1,0-.2-.1,0,0-.2,0-.2,0-.1,0-.3,0-.4.1-.1,0-.2.2-.3.3,0,.1,0,.3,0,.5v2.1h-.9Z"/>
        <path class="cls-2" d="M86.3,181c-.1,0-.2,0-.4,0-.1,0-.3,0-.4-.1-.1,0-.2-.2-.3-.3,0-.1-.1-.3-.1-.5s0-.5.2-.6.3-.3.5-.4c.2,0,.4-.2.7-.2.3,0,.6,0,.9,0v-.3c0-.1,0-.2,0-.3,0,0,0-.2-.2-.2,0,0-.2,0-.4,0s-.3,0-.4,0c0,0-.2,0-.2.2,0,0,0,.1,0,.2h0c0,0-.8,0-.8,0,0,0,0,0,0,0h0c0-.3,0-.5.2-.6.1-.2.3-.3.5-.4.2,0,.5-.1.8-.1s.6,0,.8.1c.2,0,.4.2.5.4.1.2.2.4.2.6v1.7c0,0,0,.2,0,.2,0,0,.1,0,.2,0h.2v.6s-.1,0-.2,0c0,0-.2,0-.3,0s-.2,0-.3,0-.2,0-.2-.2c0,0-.1-.2-.1-.3h0c0,0-.2.2-.3.3-.1,0-.2.1-.4.2-.1,0-.3,0-.5,0M86.5,180.3c.1,0,.3,0,.4,0,.1,0,.2-.1.3-.2,0,0,.1-.2.2-.3,0-.1,0-.2,0-.4v-.2c-.3,0-.5,0-.7,0-.2,0-.4,0-.5.2-.1,0-.2.2-.2.4s0,.2,0,.2c0,0,.1.1.2.1,0,0,.2,0,.3,0"/>
        <path class="cls-2" d="M89.4,180.9v-3.7h.7v.6h.1c0-.1.1-.2.2-.3,0,0,.2-.2.3-.2.1,0,.2,0,.4,0s.1,0,.2,0c0,0,.1,0,.1,0v.8h-.3c-.1,0-.3,0-.4,0-.1,0-.2.1-.3.2,0,0-.1.2-.2.3,0,.1,0,.3,0,.4v1.9h-.9Z"/>
        <path class="cls-2" d="M92.9,181c-.1,0-.2,0-.4,0-.1,0-.3,0-.4-.1-.1,0-.2-.2-.3-.3,0-.1-.1-.3-.1-.5s0-.5.2-.6.3-.3.5-.4c.2,0,.4-.2.7-.2.3,0,.6,0,.9,0v-.3c0-.1,0-.2,0-.3,0,0,0-.2-.2-.2,0,0-.2,0-.4,0s-.3,0-.4,0c0,0-.2,0-.2.2,0,0,0,.1,0,.2h0c0,0-.8,0-.8,0,0,0,0,0,0,0h0c0-.3,0-.5.2-.6.1-.2.3-.3.5-.4.2,0,.5-.1.8-.1s.6,0,.8.1c.2,0,.4.2.5.4.1.2.2.4.2.6v1.7c0,0,0,.2,0,.2,0,0,.1,0,.2,0h.2v.6s-.1,0-.2,0c0,0-.2,0-.3,0s-.2,0-.3,0-.2,0-.2-.2c0,0-.1-.2-.1-.3h0c0,0-.2.2-.3.3-.1,0-.2.1-.4.2-.1,0-.3,0-.5,0M93.2,180.3c.1,0,.3,0,.4,0,.1,0,.2-.1.3-.2,0,0,.1-.2.2-.3,0-.1,0-.2,0-.4v-.2c-.3,0-.5,0-.7,0-.2,0-.4,0-.5.2-.1,0-.2.2-.2.4s0,.2,0,.2c0,0,.1.1.2.1,0,0,.2,0,.3,0"/>
        <path class="cls-2" d="M97.6,180.9v-4.8h2.5c.4,0,.7,0,.9.2s.4.3.5.5c.1.2.2.5.2.8s0,.6-.2.8c-.1.2-.3.4-.6.5l1,1.9h-1l-.9-1.8h-1.5v1.8h-.9ZM98.5,178.3h1.6c.2,0,.4,0,.5-.2.1-.1.2-.3.2-.6s0-.3,0-.4c0-.1-.1-.2-.2-.2-.1,0-.2,0-.4,0h-1.6v1.5Z"/>
        <path class="cls-2" d="M103.6,181c-.1,0-.2,0-.4,0-.1,0-.3,0-.4-.1-.1,0-.2-.2-.3-.3,0-.1-.1-.3-.1-.5s0-.5.2-.6.3-.3.5-.4c.2,0,.4-.2.7-.2.3,0,.6,0,.9,0v-.3c0-.1,0-.2,0-.3,0,0,0-.2-.2-.2,0,0-.2,0-.4,0s-.3,0-.4,0c0,0-.2,0-.2.2,0,0,0,.1,0,.2h0c0,0-.8,0-.8,0,0,0,0,0,0,0h0c0-.3,0-.5.2-.6.1-.2.3-.3.5-.4.2,0,.5-.1.8-.1s.6,0,.8.1c.2,0,.4.2.5.4.1.2.2.4.2.6v1.7c0,0,0,.2,0,.2,0,0,.1,0,.2,0h.2v.6s-.1,0-.2,0c0,0-.2,0-.3,0s-.2,0-.3,0-.2,0-.2-.2c0,0-.1-.2-.1-.3h0c0,0-.2.2-.3.3-.1,0-.2.1-.4.2-.1,0-.3,0-.5,0M103.9,180.3c.1,0,.3,0,.4,0,.1,0,.2-.1.3-.2,0,0,.1-.2.2-.3,0-.1,0-.2,0-.4v-.2c-.3,0-.5,0-.7,0-.2,0-.4,0-.5.2-.1,0-.2.2-.2.4s0,.2,0,.2c0,0,.1.1.2.1,0,0,.2,0,.3,0"/>
        <path class="cls-2" d="M106.7,180.9v-3.7h.7v.5h.1c0-.1.2-.2.3-.3.1,0,.2-.2.4-.2.1,0,.3,0,.4,0s.4,0,.6.1c.2,0,.3.2.4.4h0c0-.1.2-.2.3-.3.1,0,.2-.2.4-.2.1,0,.3,0,.5,0s.4,0,.6.1c.2,0,.3.2.4.4,0,.2.1.4.1.7v2.5h-.9v-2.4c0-.1,0-.2,0-.3,0,0,0-.2-.1-.2,0,0-.1,0-.2-.1,0,0-.2,0-.2,0-.1,0-.3,0-.4.1-.1,0-.2.2-.3.3,0,.1,0,.3,0,.5v2.1h-.9v-2.4c0-.1,0-.2,0-.3,0,0,0-.2-.1-.2,0,0-.1,0-.2-.1,0,0-.2,0-.2,0-.1,0-.3,0-.4.1-.1,0-.2.2-.3.3,0,.1,0,.3,0,.5v2.1h-.9Z"/>
        <path class="cls-2" d="M112.9,180.9v-3.7h.7v.5h.1c0-.1.2-.2.3-.3.1,0,.2-.2.4-.2.1,0,.3,0,.4,0s.4,0,.6.1c.2,0,.3.2.4.4h0c0-.1.2-.2.3-.3.1,0,.2-.2.4-.2.1,0,.3,0,.5,0s.4,0,.6.1c.2,0,.3.2.4.4,0,.2.1.4.1.7v2.5h-.9v-2.4c0-.1,0-.2,0-.3,0,0,0-.2-.1-.2,0,0-.1,0-.2-.1,0,0-.2,0-.2,0-.1,0-.3,0-.4.1-.1,0-.2.2-.3.3,0,.1,0,.3,0,.5v2.1h-.9v-2.4c0-.1,0-.2,0-.3,0,0,0-.2-.1-.2,0,0-.1,0-.2-.1,0,0-.2,0-.2,0-.1,0-.3,0-.4.1-.1,0-.2.2-.3.3,0,.1,0,.3,0,.5v2.1h-.9Z"/>
        <path class="cls-2" d="M120.5,181c-.3,0-.5,0-.7,0-.2,0-.4-.1-.5-.2-.1-.1-.2-.2-.3-.4s-.1-.3-.1-.5,0,0,0,0c0,0,0,0,0,0h.8c0,.2,0,.3.1.4,0,0,.2.1.3.2.1,0,.2,0,.4,0s.2,0,.3,0,.2,0,.3-.1c0,0,.1-.1.1-.2s0-.2-.1-.3c0,0-.2-.1-.4-.2s-.3,0-.5-.1c-.2,0-.3,0-.5-.1-.2,0-.3-.1-.4-.2-.1,0-.2-.2-.3-.3,0-.1-.1-.3-.1-.5s0-.3.1-.5c0-.1.2-.2.3-.3.1,0,.3-.2.5-.2.2,0,.4,0,.6,0s.4,0,.6,0c.2,0,.3.1.5.2.1,0,.2.2.3.3,0,.1.1.3.1.4s0,0,0,0c0,0,0,0,0,0h-.8c0-.1,0-.2,0-.3s-.1-.1-.2-.2c-.1,0-.2,0-.4,0s-.2,0-.3,0c0,0-.2,0-.2,0,0,0,0,0-.1.1,0,0,0,0,0,.1,0,0,0,.2.1.2,0,0,.2,0,.3.1.1,0,.2,0,.4.1.2,0,.3,0,.5.1.2,0,.3.1.5.2s.3.2.4.3c0,.1.1.3.1.5s0,.4-.1.6-.2.3-.3.4c-.1,0-.3.2-.5.2-.2,0-.4,0-.6,0"/>
        <path class="cls-2" d="M123.5,182.2c-.2,0-.3,0-.4,0-.1,0-.2,0-.2,0v-.6h.4c0,0,.2,0,.3,0,0,0,.2-.1.3-.2,0,0,.1-.2.2-.3l-1.4-3.7h.9l.7,1.8c0,0,0,.2.1.3,0,.1,0,.2.1.4,0,.1,0,.2,0,.3h0c0,0,0-.2,0-.2,0,0,0-.2,0-.3,0,0,0-.2,0-.3,0,0,0-.2,0-.2l.6-1.8h.9l-1.2,3.5c0,.2-.1.4-.2.6,0,.2-.2.3-.3.5-.1.1-.2.2-.4.3-.2,0-.3.1-.6.1"/>
        <path class="cls-2" d="M130.3,181c-.3,0-.5,0-.8,0-.2,0-.5-.1-.6-.3-.2-.1-.3-.3-.4-.5-.1-.2-.2-.4-.2-.7s0,0,0,0c0,0,0,0,0,0h.9s0,0,0,0c0,0,0,0,0,0,0,.2,0,.3.1.4,0,.1.2.2.4.3.2,0,.4,0,.6,0s.3,0,.4,0c.1,0,.2,0,.3,0,0,0,.2,0,.2-.1s0-.1.1-.2c0,0,0-.1,0-.2,0-.1,0-.2-.1-.3,0,0-.2-.2-.3-.2-.1,0-.3-.1-.5-.2-.2,0-.4,0-.6-.2-.2,0-.4-.1-.6-.2-.2,0-.3-.2-.5-.3-.1-.1-.3-.2-.3-.4,0-.2-.1-.3-.1-.6s0-.4.1-.6c0-.2.2-.3.4-.4.2-.1.4-.2.6-.2.2,0,.5,0,.8,0s.5,0,.7,0c.2,0,.4.1.6.3.2.1.3.3.4.4,0,.2.1.4.1.6h0c0,0-.9,0-.9,0h0c0-.2,0-.3-.1-.4,0,0-.2-.2-.3-.2-.1,0-.3,0-.5,0s-.4,0-.5,0c-.1,0-.3,0-.3.2,0,0-.1.2-.1.3s0,.2.1.3c0,0,.2.1.3.2.1,0,.3.1.5.2.2,0,.4,0,.6.2.2,0,.4.1.6.2.2,0,.3.2.5.3.1.1.3.2.3.4,0,.2.1.3.1.6,0,.4,0,.7-.3.9-.2.2-.4.4-.7.5-.3,0-.7.1-1,.1"/>
        <path class="cls-2" d="M134.2,181c-.1,0-.2,0-.4,0-.1,0-.3,0-.4-.1-.1,0-.2-.2-.3-.3,0-.1-.1-.3-.1-.5s0-.5.2-.6c.1-.2.3-.3.5-.4.2,0,.4-.2.7-.2.3,0,.6,0,.9,0v-.3c0-.1,0-.2,0-.3,0,0,0-.2-.2-.2,0,0-.2,0-.4,0s-.3,0-.4,0c0,0-.2,0-.2.2,0,0,0,.1,0,.2h0c0,0-.8,0-.8,0,0,0,0,0,0,0h0c0-.3,0-.5.2-.6.1-.2.3-.3.5-.4.2,0,.5-.1.8-.1s.6,0,.8.1c.2,0,.4.2.5.4.1.2.2.4.2.6v1.7c0,0,0,.2,0,.2,0,0,.1,0,.2,0h.2v.6s-.1,0-.2,0c0,0-.2,0-.3,0s-.2,0-.3,0c0,0-.2,0-.2-.2,0,0-.1-.2-.1-.3h0c0,0-.2.2-.3.3-.1,0-.2.1-.4.2-.1,0-.3,0-.5,0M134.4,180.3c.1,0,.3,0,.4,0s.2,0,.3-.2c0,0,.1-.2.2-.3,0-.1,0-.2,0-.4v-.2c-.3,0-.5,0-.7,0-.2,0-.4,0-.5.2-.1,0-.2.2-.2.4s0,.2,0,.2c0,0,.1.1.2.1,0,0,.2,0,.3,0M134.2,176.7l.6-.9h.9s-.8.9-.8.9h-.7Z"/>
        <path class="cls-2" d="M137.3,180.9v-3.7h.7v.5h.1c0-.1.2-.2.3-.3.1,0,.2-.2.4-.2.1,0,.3,0,.5,0s.4,0,.6.1c.2,0,.3.2.4.4.1.2.2.4.2.8v2.5h-.9v-2.3c0-.1,0-.2,0-.3,0,0,0-.2-.1-.2,0,0-.1,0-.2-.1,0,0-.2,0-.3,0-.2,0-.3,0-.4.1-.1,0-.2.2-.3.3,0,.1-.1.3-.1.5v2.1h-.9Z"/>
        <path class="cls-2" d="M143,181c-.4,0-.7,0-1-.2s-.4-.4-.6-.6c-.1-.3-.2-.6-.2-1.1s0-.8.2-1.1c.1-.3.3-.5.6-.6.3-.1.6-.2,1-.2s.5,0,.7,0c.2,0,.4.2.5.3s.2.3.3.5c0,.2.1.4.1.6h-.9c0-.2,0-.3,0-.4,0-.1-.1-.2-.2-.3-.1,0-.2,0-.4,0s-.3,0-.5.1c-.1,0-.2.2-.3.4,0,.2,0,.4,0,.7h0c0,.4,0,.6,0,.8,0,.2.2.3.3.4.1,0,.3.1.5.1s.3,0,.4,0c.1,0,.2-.1.2-.3,0-.1,0-.3,0-.4h.8c0,.2,0,.4-.1.6,0,.2-.2.3-.3.5-.1.1-.3.2-.5.3-.2,0-.4,0-.7,0"/>
        <path class="cls-2" d="M145.5,180.9v-5.1h.9v1.8h0c0,0,.2-.2.3-.3.1,0,.2-.1.4-.2.1,0,.3,0,.5,0s.4,0,.6.1c.2,0,.3.2.4.4.1.2.2.4.2.8v2.5h-.9v-2.3c0-.1,0-.2,0-.3,0,0,0-.2-.1-.2,0,0-.1,0-.2-.1,0,0-.2,0-.3,0-.2,0-.3,0-.4.1-.1,0-.2.2-.3.3,0,.1-.1.3-.1.5v2.1h-.9Z"/>
        <path class="cls-2" d="M151.3,181c-.4,0-.7,0-1-.2-.3-.1-.5-.3-.6-.6-.1-.3-.2-.6-.2-1.1s0-.8.2-1.1c.1-.3.3-.5.6-.6.3-.1.6-.2,1-.2s.7,0,.9.2c.2.1.4.3.5.6.1.3.2.6.2,1.1v.3h-2.5c0,.2,0,.4.1.6,0,.2.2.3.3.4.1,0,.3.1.5.1s.2,0,.3,0c0,0,.2,0,.2-.1,0,0,.1-.1.2-.2,0,0,0-.2,0-.3h.8c0,.2,0,.4-.1.6,0,.2-.2.3-.3.4-.1.1-.3.2-.5.3-.2,0-.4,0-.6,0M150.4,178.7h1.6c0-.2,0-.3,0-.4,0-.1,0-.2-.1-.3,0,0-.1-.1-.2-.2,0,0-.2,0-.3,0-.2,0-.3,0-.5,0-.1,0-.2.2-.3.3,0,.1-.1.3-.1.5"/>
        <polygon class="cls-2" points="153.5 180.9 153.5 180.5 155.4 177.9 153.6 177.9 153.6 177.2 156.6 177.2 156.6 177.6 154.7 180.2 156.7 180.2 156.7 180.9 153.5 180.9"/>
        <path class="cls-2" d="M65.2,174.5c-2.2,0-3.9,1.8-3.9,3.9s1.8,3.9,3.9,3.9,3.9-1.8,3.9-3.9-1.8-3.9-3.9-3.9M66.3,176.9h-.5c-.2,0-.2,0-.2.3v.5h.7v.8h-.7v2.4h-1v-2.4h-.5v-.8h.5v-.6c0-.6.3-.9,1-.9h.7v.8Z"/>
        <g class="cls-5">
          <g class="cls-18">
            <g class="cls-17">
              <image width="142" height="109" transform="translate(-7.3 -61.3)" xlink:href="lema-01-3.png"/>
            </g>
          </g>
        </g>
        <path class="cls-3" d="M14-34.2c0-3.3,1.9-5.2,4.9-5.2s4.2,1.4,4.5,3.9l-2.3.4c-.3-1.5-.9-2.2-2.3-2.2s-2.5,1.3-2.5,3.1.7,3.2,2.5,3.2,2.1-.8,2.4-2.3l2.3.4c-.3,2.5-1.9,3.9-4.6,3.9s-4.9-2-4.9-5.2"/>
        <path class="cls-3" d="M30.1-31.3h-.2c-.4,1.5-1.4,2.3-2.7,2.3s-2.3-1.1-2.3-2.8v-5.3h2.3v4.7c0,.8.4,1.4,1.2,1.4s1.6-.7,1.6-1.7v-4.4h2.3v7.9h-2.2v-2.1Z"/>
        <path class="cls-3" d="M33.8-33c0-2.7,1.5-4.3,4-4.3s3.6,1.4,3.6,3.6,0,.6,0,1.1h-5.3c.1,1.3.7,1.8,1.8,1.8s1.4-.5,1.6-1.1l1.9.5c-.3,1.4-1.3,2.4-3.5,2.4s-4-1.3-4-4M36.1-33.8h3.3c0-1.2-.5-1.8-1.6-1.8s-1.6.5-1.7,1.8"/>
        <path class="cls-3" d="M45.3-29.2h-2.3v-7.9h2.2v2.1h.2c.5-1.5,1.4-2.3,2.7-2.3s2.3,1,2.3,2.8v5.3h-2.3v-4.7c0-.8-.4-1.3-1.2-1.3s-1.6.7-1.6,1.7v4.4Z"/>
        <path class="cls-3" d="M52.6-35.3h-1v-1.8h1v-2h2.3v2h2.1v1.8h-2.1v3.2c0,.6.2.9.9.9s.7-.1,1-.2l.2,2c-.6.2-1,.3-1.9.3-1.8,0-2.6-1.2-2.6-2.7v-3.6Z"/>
        <path class="cls-3" d="M63.2-31.1h-.2c-.4,1.2-1.2,2-2.6,2s-2.3-.7-2.3-2.2.8-2.4,2.9-2.4h2.1v-.5c0-.8-.3-1.3-1.2-1.3s-1.2.4-1.3,1.1l-2.1-.5c.3-1.4,1.4-2.4,3.5-2.4s3.4,1.1,3.4,3.1v5h-2.1v-1.9ZM63-32.2v-.3h-1.6c-.7,0-1.2.3-1.2.9s.3.9,1.1.9,1.7-.6,1.7-1.5"/>
        <path class="cls-3" d="M18-20.1c-1,0-1.7.7-1.7,2.2s.6,2.2,1.7,2.2,1.4-.7,1.6-1.5l2.1.5c-.3,1.8-1.4,3-3.6,3s-4.1-1.4-4.1-4.1,1.5-4.3,4-4.3,3.3,1.1,3.6,3l-2.1.4c-.2-.8-.6-1.4-1.6-1.4"/>
        <path class="cls-3" d="M22.9-17.9c0-2.6,1.6-4.2,4.1-4.2s4,1.5,4,4.2-1.5,4.2-4,4.2-4.1-1.6-4.1-4.2M25.1-18c0,1.4.5,2.3,1.8,2.3s1.8-.8,1.8-2.3-.5-2.2-1.8-2.2-1.8.8-1.8,2.2"/>
        <path class="cls-3" d="M34.8-14h-2.3v-7.9h2.2v2.1h.2c.5-1.5,1.4-2.3,2.7-2.3s2.3,1,2.3,2.8v5.3h-2.3v-4.7c0-.8-.4-1.3-1.2-1.3s-1.6.7-1.6,1.7v4.4Z"/>
        <path class="cls-3" d="M43.9-14h-2.3v-7.9h2.2v2.1h.2c.4-1.5,1.4-2.3,2.6-2.3s2.1.9,2.2,2.4h.2c.4-1.5,1.3-2.4,2.6-2.4s2.3,1,2.3,2.8v5.3h-2.3v-4.7c0-.8-.4-1.3-1.2-1.3s-1.6.7-1.6,1.7v4.4h-2.3v-4.7c0-.8-.4-1.3-1.2-1.3s-1.6.7-1.6,1.7v4.4Z"/>
        <path class="cls-3" d="M55.9-24.6h2.4v1.6h-2.4v-1.6ZM55.9-21.9h2.3v7.9h-2.3v-7.9Z"/>
        <path class="cls-3" d="M63.4-11.1c-3,0-3.9-.6-3.9-1.6s.8-1.2,1.8-1.4h0c-.8-.2-1.2-.6-1.2-1.2s.3-.8,1-1.1l.6-.3c-1.2-.4-1.8-1.2-1.8-2.4,0-1.8,1.3-2.7,3.6-2.7h4v1.7h-.9c-.4,0-.9,0-1.5,0v.2c1,.2,1.8.5,1.8,1.5,0,1.3-1.2,2.2-3.5,2.2s-.9,0-1.3-.1v.2c-.2.1-.3.3-.3.4,0,.3.2.4.7.4.9,0,1.8,0,2.6,0,1.7,0,2.5.8,2.5,2s-1.1,2.5-4.3,2.5M65.9-13.5c0-.4-.3-.6-.9-.6h-2.7c-.7,0-1.1.3-1.1.7s.4.8,2.3.8,2.4-.3,2.4-.8M61.9-19.1c0,.6.4,1.1,1.5,1.1s1.5-.5,1.5-1.1-.5-1.1-1.5-1.1-1.5.5-1.5,1.1"/>
        <path class="cls-3" d="M68.5-17.9c0-2.6,1.6-4.2,4.1-4.2s4,1.5,4,4.2-1.5,4.2-4,4.2-4.1-1.6-4.1-4.2M70.8-18c0,1.4.5,2.3,1.8,2.3s1.8-.8,1.8-2.3-.5-2.2-1.8-2.2-1.8.8-1.8,2.2"/>
      </g>
    </g>
  </g>
</svg>