<?xml version="1.0" encoding="UTF-8"?>
<svg xmlns="http://www.w3.org/2000/svg" xmlns:xlink="http://www.w3.org/1999/xlink" version="1.1" viewBox="0 0 51.6 51.7">
  <defs>
    <style>
      .cls-1 {
        fill: none;
      }

      .cls-2 {
        mix-blend-mode: multiply;
        opacity: .8;
      }

      .cls-3 {
        isolation: isolate;
      }

      .cls-4 {
        clip-path: url(#clippath-1);
      }

      .cls-5 {
        fill: #fff;
      }

      .cls-6 {
        fill: #ff24c1;
      }

      .cls-7 {
        clip-path: url(#clippath);
      }
    </style>
    <clipPath id="clippath">
      <rect class="cls-1" x="-7.2" y="-.6" width="72" height="55"/>
    </clipPath>
    <clipPath id="clippath-1">
      <rect class="cls-1" x="-7.2" y="-.6" width="72" height="55"/>
    </clipPath>
  </defs>
  <!-- Generator: Adobe Illustrator 28.7.1, SVG Export Plug-In . SVG Version: 1.2.0 Build 142)  -->
  <g class="cls-3">
    <g id="Capa_1">
      <rect class="cls-6" y="0" width="51.6" height="51.6"/>
      <g class="cls-2">
        <g class="cls-7">
          <g class="cls-4">
            <image width="72" height="55" transform="translate(-7.2 -.6)" xlink:href="vota-01-1.png"/>
          </g>
        </g>
      </g>
      <path class="cls-5" d="M15,22l-2.6-6.5h1.3l.9,2.5c.4,1,.7,2,1,3h.3c.3-1,.7-2,1-3l.9-2.5h1.3l-2.6,6.5h-1.6Z"/>
      <path class="cls-5" d="M19.8,18.7c0-2.1,1.3-3.4,3.3-3.4s3.3,1.3,3.3,3.4-1.2,3.5-3.3,3.5-3.3-1.3-3.3-3.5M21,18.7c0,1.5.7,2.4,2,2.4s2.1-.9,2.1-2.4-.7-2.4-2.1-2.4-2.1.9-2.1,2.4"/>
      <path class="cls-5" d="M28.4,16.4h-1v-1h1v-1.8h1.2v1.8h2.1v1h-2.1v3.4c0,.7.3,1.1,1,1.1s.6,0,1-.2l.2,1.1c-.4.1-.8.2-1.4.2-1.4,0-2-.9-2-2.1v-3.6Z"/>
      <path class="cls-5" d="M37.3,20.4h-.1c-.3,1.1-1.2,1.7-2.3,1.7s-2-.6-2-1.8.7-2,2.3-2h2.1v-.5c0-1-.4-1.5-1.4-1.5s-1.4.4-1.6,1.3l-1.1-.3c.3-1.3,1.2-2,2.8-2s2.6.9,2.6,2.5v4.2h-1.2v-1.6ZM37.2,19.5v-.4h-1.9c-.9,0-1.3.3-1.3,1s.3,1,1.3,1,2-.7,2-1.6"/>
      <path class="cls-5" d="M13.3,30.4v-5h2v5.2c0,2.2-1.3,3.4-3.7,3.4s-3.7-1.2-3.7-3.4v-5.2h2v5c0,1.1.4,1.8,1.7,1.8s1.7-.7,1.7-1.8"/>
      <rect class="cls-5" x="16.5" y="29.5" width="4.4" height="1.8"/>
      <path class="cls-5" d="M24,28.7l-1.9-.2c.2-2,1.2-3.3,3.6-3.3s3.3.9,3.3,2.8-1.4,2.5-3.4,2.9c-1.5.4-2,.6-2.1,1.4.8,0,1.8-.2,2.4-.2h3.1v1.7h-7.2c0-.3,0-.7,0-1,0-1.9.9-2.7,2.8-3.2,2-.5,2.4-.9,2.4-1.6s-.4-1.1-1.4-1.1-1.6.6-1.7,1.8"/>
      <path class="cls-5" d="M30.2,31.6c0-1.1.7-1.7,2.2-1.9v-.2c-1.2-.3-1.9-.8-1.9-2,0-1.4,1-2.3,3.3-2.3s3.3.8,3.3,2.3-.7,1.7-1.9,2v.2c1.5.2,2.2.9,2.2,1.9s-1,2.4-3.6,2.4-3.6-1-3.6-2.4M32.2,31.4c0,.7.5,1.1,1.6,1.1s1.6-.4,1.6-1.1-.3-1.1-1.6-1.1-1.6.4-1.6,1.1M32.4,27.9c0,.8.5,1.1,1.4,1.1s1.4-.3,1.4-1.1-.4-1-1.4-1-1.4.4-1.4,1"/>
      <path class="cls-5" d="M38.6,33.8v-1.7h2v-4.9c-.5.3-1,.5-1.7.8l-.6-1.6,3.1-1h1.1v6.7h1.6v1.7h-5.5Z"/>
    </g>
  </g>
</svg>